<?xml version="1.0" encoding="UTF-8"?>
<svg xmlns="http://www.w3.org/2000/svg" xmlns:xlink="http://www.w3.org/1999/xlink" width="398" height="167.956" viewBox="0 0 398 167.956">
  <defs>
    <linearGradient id="a" x1="0.99" y1="0.5" x2="-0.009" y2="0.5" gradientUnits="objectBoundingBox">
      <stop offset="0" stop-color="#008fc1"></stop>
      <stop offset="0.37" stop-color="#008cbe"></stop>
      <stop offset="0.68" stop-color="#0081b3"></stop>
      <stop offset="0.97" stop-color="#0070a2"></stop>
      <stop offset="1" stop-color="#006ea0"></stop>
    </linearGradient>
    <linearGradient id="b" x1="0.984" x2="-0.337" xlink:href="#a"></linearGradient>
    <linearGradient id="c" x1="4.351" x2="-0.043" xlink:href="#a"></linearGradient>
    <linearGradient id="d" x1="0" x2="1" xlink:href="#a"></linearGradient>
  </defs>
  <g transform="translate(163.51 35.299)">
    <path d="M590.735,448.773a21.85,21.85,0,0,1-16.99-7.553Q567,433.666,567,422.093v-2.761q0-11.676,6.723-19.38A20.857,20.857,0,0,1,590,392.26q10.026,0,15.754,6.341t5.775,16.909v5.128H573.018v1.455a24.034,24.034,0,0,0,4.886,15.373,15.58,15.58,0,0,0,12.832,6.168,26.34,26.34,0,0,0,9.609-1.559,18.823,18.823,0,0,0,6.791-4.469l2.576,4.123a22.077,22.077,0,0,1-7.773,5.14A29.8,29.8,0,0,1,590.735,448.773Zm-.762-51.385a14.4,14.4,0,0,0-11.215,5.093,21.945,21.945,0,0,0-5.29,12.774l.1.254h31.911V414a17.326,17.326,0,0,0-4.181-11.839,14.3,14.3,0,0,0-11.33-4.77Z" transform="translate(-567 -369.161)" fill="#d66e36"></path>
    <path d="M651.535,438.67a18.76,18.76,0,0,1-7.045,7.369,20.331,20.331,0,0,1-10.464,2.6q-8.6,0-13.49-5.844t-4.885-18.11V393.13h6.04v31.716q0,9.979,3.4,14.322a11.549,11.549,0,0,0,9.643,4.331q6.849,0,10.915-3.072a15.937,15.937,0,0,0,5.694-8.466V393.13h6.029v54.446h-5.324Z" transform="translate(-559.461 -369.026)" fill="#d66e36"></path>
    <path d="M708.625,425.089q0,12.231-5.533,19.5a18.121,18.121,0,0,1-15.257,7.276,21.049,21.049,0,0,1-10.314-2.391,18.483,18.483,0,0,1-7-6.872l-.647,8.2H664.69V372.26h6.041v32.605a18.584,18.584,0,0,1,17.013-9.552,17.762,17.762,0,0,1,15.349,7.831q5.521,7.831,5.533,20.859Zm-6.087-1.062q0-10.464-4.031-17a13.121,13.121,0,0,0-11.931-6.549,15.58,15.58,0,0,0-10.141,3.13,18.674,18.674,0,0,0-5.705,8.085v24.717a17.233,17.233,0,0,0,6.017,7.565,16.911,16.911,0,0,0,9.933,2.8q7.9,0,11.873-5.856t3.985-15.823Z" transform="translate(-551.861 -372.26)" fill="#008fc1"></path>
    <path d="M721.043,380.755H715.06V372.3h5.983Zm0,70.049H715.06V396.358h5.983Z" transform="translate(-544.055 -372.254)" fill="#008fc1"></path>
    <path d="M755.255,443.639a17.183,17.183,0,0,0,10.568-3.407,11.156,11.156,0,0,0,4.62-9.47h5.324l.1.3a14.932,14.932,0,0,1-6.041,12.635,22.5,22.5,0,0,1-14.541,5.082q-11.122,0-17.186-7.623t-6.064-19.635V419.4q0-11.862,6.087-19.519t17.117-7.646a21.689,21.689,0,0,1,14.864,5.313,17.084,17.084,0,0,1,5.775,13.86l-.093.3h-5.382A13.26,13.26,0,0,0,766,401.309a15.686,15.686,0,0,0-10.787-3.9q-8.766,0-12.958,6.26t-4.2,15.754v2.113q0,9.656,4.17,15.893T755.255,443.639Z" transform="translate(-541.424 -369.166)" fill="#008fc1"></path>
  </g>
  <path d="M74.757,155.131,148.49,109.14V82.76l-73.8,41.3L28.535,92.485,1,108.1Z" transform="translate(0.155 12.826)" fill="url(#a)"></path>
  <path d="M69.912,117.469,143.646,71.49V45.11l-73.8,41.3-11.4-7.8L32.26,93.457Z" transform="translate(4.999 6.991)" fill="url(#b)"></path>
  <path d="M28.535,53.52,1,69.135l7.519,4.8L34.494,57.6Z" transform="translate(0.155 8.295)" fill="url(#c)"></path>
  <path d="M74.877,0,0,47.111V75.258L28.817,58.927,74.369,33.09l47.712,31.046,25.213-14.1.254-.139Z" fill="url(#d)"></path>
  <path d="M98.12,91.766l7.542,4.909,27.87-15.6-8.7-5.971Z" transform="translate(15.206 11.639)" fill="url(#d)"></path>
  <path d="M74.877,37.66,39.131,60.147l-1.143.7-1.132.716L10.972,77.853l-1.155.728-1.155.728L0,84.76v28.158L28.817,96.575,32.489,94.5,33.7,93.8l1.213-.681,26.264-14.9,1.2-.681,1.178-.67L74.369,70.75,86.15,78.419l26.5-14.83Z" transform="translate(0 5.836)" fill="url(#d)"></path>
  <path d="M56.66,73.836,65.727,68.5l9.286,6.537-8.893,5.047Z" transform="translate(8.781 10.616)" fill="#d66e36"></path>
</svg>
