<?xml version="1.0" encoding="UTF-8"?>
<svg xmlns="http://www.w3.org/2000/svg" width="215" height="55" viewBox="0 0 215 55" fill="none">
  <g clip-path="url(#clip0_72_2178)">
    <path d="M121.673 3.01367H120.891V11.5817H121.673V3.01367Z" fill="white"></path>
    <path d="M124.27 11.5729V3.01367H125.051L129.611 10.2325V3.01367H130.392V11.5729H129.611L125.051 4.36283V11.5729H124.27Z" fill="white"></path>
    <path d="M136.802 10.9771C137.288 10.9771 137.731 10.8808 138.148 10.6968C138.565 10.5128 138.929 10.25 139.242 9.90833C139.555 9.57543 139.798 9.18119 139.98 8.73439C140.154 8.2876 140.241 7.80575 140.241 7.28887C140.241 6.77198 140.154 6.29014 139.98 5.84335C139.806 5.39655 139.563 5.00231 139.242 4.6694C138.929 4.3365 138.565 4.07367 138.148 3.8897C137.731 3.70572 137.288 3.60935 136.802 3.60935C136.315 3.60935 135.864 3.70572 135.447 3.8897C135.03 4.08243 134.665 4.3365 134.352 4.6694C134.04 5.00231 133.797 5.39655 133.623 5.84335C133.449 6.29014 133.362 6.77198 133.362 7.28887C133.362 7.80575 133.449 8.2876 133.623 8.73439C133.797 9.18119 134.049 9.57543 134.352 9.90833C134.665 10.2412 135.03 10.5041 135.447 10.6968C135.864 10.8808 136.315 10.9771 136.802 10.9771ZM136.802 11.7393C136.211 11.7393 135.655 11.6254 135.134 11.3977C134.613 11.1699 134.161 10.8545 133.771 10.4427C133.38 10.0397 133.076 9.56667 132.85 9.0235C132.633 8.48909 132.52 7.91088 132.52 7.28887C132.52 6.66686 132.633 6.08865 132.85 5.55424C133.067 5.01983 133.38 4.54675 133.771 4.14376C134.161 3.74076 134.613 3.41662 135.134 3.18884C135.655 2.96106 136.211 2.84717 136.802 2.84717C137.392 2.84717 137.948 2.96106 138.469 3.18884C138.99 3.41662 139.442 3.732 139.833 4.14376C140.223 4.54675 140.527 5.01983 140.753 5.55424C140.97 6.08865 141.083 6.66686 141.083 7.28887C141.083 7.91088 140.97 8.48033 140.753 9.0235C140.536 9.5579 140.223 10.031 139.833 10.4427C139.442 10.8457 138.99 11.1699 138.469 11.3977C137.948 11.6254 137.392 11.7393 136.802 11.7393Z" fill="white"></path>
    <path d="M145.391 11.5729L141.83 3.01367H142.716L145.703 10.3902L148.682 3.01367H149.568L146.007 11.5729H145.391Z" fill="white"></path>
    <path d="M151.635 8.14744H154.753L153.198 4.04741L151.635 8.14744ZM149.49 11.5729L152.834 3.00488H153.554L156.898 11.5729H156.056L155.022 8.83954H151.375L150.332 11.5729H149.49Z" fill="white"></path>
    <path d="M162.178 1.83976L160.294 0.438038L160.606 0L162.178 1.16518L163.75 0L164.072 0.438038L162.178 1.83976ZM162.178 11.7394C161.544 11.7394 160.954 11.6255 160.407 11.4065C159.86 11.1787 159.382 10.8633 158.982 10.4603C158.574 10.0573 158.262 9.58426 158.036 9.04986C157.81 8.50669 157.697 7.92848 157.697 7.29771C157.697 6.66693 157.81 6.08872 158.036 5.54556C158.262 5.00239 158.583 4.53807 158.982 4.13507C159.391 3.73208 159.86 3.41669 160.407 3.18891C160.954 2.96113 161.544 2.84724 162.178 2.84724C162.708 2.84724 163.212 2.92609 163.672 3.08378C164.141 3.24148 164.549 3.4605 164.905 3.73208L164.532 4.38914C164.228 4.14384 163.881 3.9511 163.481 3.81969C163.082 3.68828 162.665 3.62695 162.213 3.62695C161.675 3.62695 161.18 3.72332 160.737 3.9073C160.294 4.09127 159.903 4.35409 159.573 4.687C159.243 5.01991 158.991 5.40538 158.809 5.85218C158.626 6.29898 158.539 6.78082 158.539 7.28895C158.539 7.79707 158.626 8.27891 158.809 8.72571C158.991 9.17251 159.243 9.55798 159.573 9.89089C159.903 10.2238 160.294 10.4779 160.737 10.6706C161.188 10.8546 161.675 10.9509 162.213 10.9509C162.656 10.9509 163.082 10.8809 163.481 10.7494C163.881 10.618 164.228 10.4341 164.532 10.18L164.905 10.8371C164.549 11.1086 164.141 11.3189 163.681 11.4853C163.22 11.643 162.717 11.7219 162.178 11.7219" fill="white"></path>
    <path d="M166.634 11.5729V3.01367H167.415L171.975 10.2325V3.01367H172.756V11.5729H171.975L167.415 4.36283V11.5729H166.634Z" fill="white"></path>
    <path d="M175.353 3.01393H176.135V11.5819H175.353V3.01393ZM175.683 2.32183L175.301 2.03272L176.282 0.0703125L176.873 0.490829L175.692 2.32183H175.683Z" fill="white"></path>
    <path d="M124.599 26.1597C123.965 26.1597 123.375 26.0459 122.828 25.8268C122.281 25.5991 121.803 25.2837 121.403 24.8807C120.995 24.4777 120.683 24.0046 120.457 23.4702C120.231 22.927 120.118 22.3488 120.118 21.718C120.118 21.0873 120.231 20.5091 120.457 19.9659C120.683 19.4227 121.004 18.9584 121.403 18.5554C121.812 18.1524 122.281 17.837 122.828 17.6092C123.375 17.3815 123.965 17.2676 124.599 17.2676C125.129 17.2676 125.633 17.3464 126.093 17.5041C126.562 17.6618 126.97 17.8808 127.326 18.1524L126.953 18.8095C126.649 18.5642 126.302 18.3714 125.902 18.24C125.503 18.1086 125.086 18.0473 124.634 18.0473C124.096 18.0473 123.601 18.1437 123.158 18.3276C122.706 18.5116 122.324 18.7744 121.994 19.1073C121.664 19.4402 121.412 19.8257 121.23 20.2725C121.047 20.7193 120.961 21.2012 120.961 21.7093C120.961 22.2174 121.047 22.6992 121.23 23.146C121.412 23.5928 121.664 23.9783 121.994 24.3112C122.324 24.6441 122.715 24.8982 123.158 25.0909C123.609 25.2749 124.096 25.3713 124.634 25.3713C125.077 25.3713 125.503 25.3012 125.902 25.1698C126.302 25.0384 126.649 24.8544 126.953 24.6003L127.326 25.2574C126.97 25.529 126.562 25.7392 126.102 25.9057C125.642 26.0634 125.138 26.1422 124.599 26.1422" fill="white"></path>
    <path d="M129.046 25.9933V17.4341H133.328V18.1262H129.828V21.3501H133.197V22.051H129.828V25.3012H133.328V25.9933H129.046Z" fill="white"></path>
    <path d="M135.334 25.9933V17.4341H136.115L140.675 24.6529V17.4341H141.456V25.9933H140.675L136.115 18.7832V25.9933H135.334Z" fill="white"></path>
    <path d="M145.582 25.9933V18.1437H142.994V17.4341H148.969V18.1437H146.372V25.9933H145.582Z" fill="white"></path>
    <path d="M151.331 21.7005H152.564C152.998 21.7005 153.372 21.6305 153.684 21.4728C153.997 21.3238 154.24 21.1136 154.405 20.8332C154.57 20.5529 154.657 20.2375 154.657 19.8608C154.657 19.3001 154.475 18.8621 154.101 18.5467C153.728 18.2313 153.216 18.0648 152.564 18.0648H151.331V21.6918V21.7005ZM150.549 25.9933V17.4253H152.755C153.311 17.4253 153.789 17.5217 154.197 17.7144C154.605 17.9071 154.918 18.1875 155.135 18.5467C155.361 18.9059 155.465 19.3351 155.465 19.8433C155.465 20.2988 155.369 20.7106 155.187 21.061C154.996 21.4114 154.735 21.7005 154.397 21.9108C154.058 22.1298 153.65 22.2612 153.181 22.305L156.003 25.9845H155.013L152.304 22.3751H151.34V25.9845H150.558L150.549 25.9933Z" fill="white"></path>
    <path d="M160.415 26.1598C159.434 26.1598 158.704 25.8882 158.209 25.3538C157.714 24.8106 157.471 24.0046 157.471 22.9271V17.4341H158.253V22.7606C158.253 23.6455 158.435 24.3025 158.791 24.7405C159.147 25.1786 159.694 25.3888 160.415 25.3888C161.136 25.3888 161.675 25.1698 162.031 24.7405C162.387 24.3025 162.569 23.6455 162.569 22.7606V17.4341H163.359V22.9271C163.359 24.0046 163.116 24.8106 162.621 25.3538C162.126 25.897 161.397 26.1598 160.415 26.1598Z" fill="white"></path>
    <path d="M165.348 25.9933L166.442 17.4341H167.276L169.769 24.1273L172.27 17.4341H173.104L174.198 25.9933H173.416L172.478 18.8971L170.055 25.4677H169.491L167.068 18.8971L166.13 25.9933H165.348Z" fill="white"></path>
    <path d="M124.66 39.8175C125.147 39.8175 125.589 39.7211 126.006 39.5371C126.423 39.3532 126.788 39.0903 127.101 38.7487C127.413 38.4158 127.656 38.0215 127.839 37.5747C128.013 37.1279 128.099 36.6461 128.099 36.1292C128.099 35.6123 128.013 35.1305 127.839 34.6837C127.665 34.2369 127.422 33.8426 127.101 33.5097C126.788 33.1768 126.423 32.914 126.006 32.73C125.589 32.5461 125.147 32.4497 124.66 32.4497C124.174 32.4497 123.722 32.5461 123.305 32.73C122.889 32.9228 122.524 33.1768 122.211 33.5097C121.898 33.8426 121.655 34.2369 121.482 34.6837C121.308 35.1305 121.221 35.6123 121.221 36.1292C121.221 36.6461 121.308 37.1279 121.482 37.5747C121.655 38.0215 121.907 38.4158 122.211 38.7487C122.524 39.0816 122.889 39.3444 123.305 39.5371C123.722 39.7211 124.174 39.8175 124.66 39.8175ZM124.66 40.5797C124.07 40.5797 123.514 40.4658 122.993 40.238C122.472 40.0102 122.02 39.6948 121.629 39.2831C121.238 38.8801 120.934 38.407 120.709 37.8638C120.492 37.3294 120.379 36.7512 120.379 36.1292C120.379 35.5072 120.492 34.929 120.709 34.3946C120.926 33.8602 121.238 33.3871 121.629 32.9841C122.02 32.5811 122.472 32.257 122.993 32.0292C123.514 31.8014 124.07 31.6875 124.66 31.6875C125.251 31.6875 125.807 31.8014 126.328 32.0292C126.849 32.257 127.3 32.5723 127.691 32.9841C128.082 33.3871 128.386 33.8602 128.612 34.3946C128.829 34.929 128.942 35.5072 128.942 36.1292C128.942 36.7512 128.829 37.3207 128.612 37.8638C128.395 38.3982 128.082 38.8713 127.691 39.2831C127.3 39.6861 126.849 40.0102 126.328 40.238C125.807 40.4658 125.251 40.5797 124.66 40.5797Z" fill="white"></path>
    <path d="M131.061 40.4132V31.8452H131.843V39.7211H135.403V40.4132H131.061Z" fill="white"></path>
    <path d="M140.171 39.8175C140.658 39.8175 141.1 39.7211 141.517 39.5371C141.934 39.3532 142.299 39.0903 142.612 38.7487C142.924 38.4158 143.167 38.0215 143.35 37.5747C143.524 37.1279 143.61 36.6461 143.61 36.1292C143.61 35.6123 143.524 35.1305 143.35 34.6837C143.176 34.2369 142.933 33.8426 142.612 33.5097C142.299 33.1768 141.934 32.914 141.517 32.73C141.1 32.5461 140.658 32.4497 140.171 32.4497C139.685 32.4497 139.233 32.5461 138.816 32.73C138.4 32.9228 138.035 33.1768 137.722 33.5097C137.409 33.8426 137.166 34.2369 136.993 34.6837C136.819 35.1305 136.732 35.6123 136.732 36.1292C136.732 36.6461 136.819 37.1279 136.993 37.5747C137.166 38.0215 137.418 38.4158 137.722 38.7487C138.035 39.0816 138.4 39.3444 138.816 39.5371C139.233 39.7211 139.685 39.8175 140.171 39.8175ZM140.171 40.5797C139.581 40.5797 139.025 40.4658 138.504 40.238C137.983 40.0102 137.531 39.6948 137.14 39.2831C136.749 38.8801 136.445 38.407 136.22 37.8638C136.003 37.3294 135.89 36.7512 135.89 36.1292C135.89 35.5072 136.003 34.929 136.22 34.3946C136.437 33.8602 136.749 33.3871 137.14 32.9841C137.531 32.5811 137.983 32.257 138.504 32.0292C139.025 31.8014 139.581 31.6875 140.171 31.6875C140.762 31.6875 141.318 31.8014 141.839 32.0292C142.36 32.257 142.811 32.5723 143.202 32.9841C143.593 33.3871 143.897 33.8602 144.123 34.3946C144.34 34.929 144.453 35.5072 144.453 36.1292C144.453 36.7512 144.34 37.3207 144.123 37.8638C143.906 38.3982 143.593 38.8713 143.202 39.2831C142.811 39.6861 142.36 40.0102 141.839 40.238C141.318 40.4658 140.762 40.5797 140.171 40.5797Z" fill="white"></path>
    <path d="M146.051 40.4132L147.145 31.8452H147.979L150.471 38.5472L152.972 31.8452H153.798L154.901 40.4132H154.119L153.181 33.317L150.758 39.8876H150.193L147.77 33.317L146.832 40.4132H146.051Z" fill="white"></path>
    <path d="M160.78 39.8175C161.266 39.8175 161.709 39.7211 162.126 39.5371C162.543 39.3532 162.908 39.0903 163.221 38.7487C163.533 38.4158 163.776 38.0215 163.95 37.5747C164.124 37.1279 164.211 36.6461 164.211 36.1292C164.211 35.6123 164.124 35.1305 163.95 34.6837C163.776 34.2369 163.533 33.8426 163.221 33.5097C162.908 33.1768 162.543 32.914 162.126 32.73C161.709 32.5461 161.266 32.4497 160.78 32.4497C160.294 32.4497 159.842 32.5461 159.425 32.73C159.008 32.9228 158.644 33.1768 158.331 33.5097C158.018 33.8426 157.775 34.2369 157.593 34.6837C157.419 35.1305 157.332 35.6123 157.332 36.1292C157.332 36.6461 157.419 37.1279 157.593 37.5747C157.767 38.0215 158.018 38.4158 158.331 38.7487C158.644 39.0816 159.008 39.3444 159.425 39.5371C159.842 39.7211 160.294 39.8175 160.78 39.8175ZM160.78 40.5797C160.19 40.5797 159.634 40.4658 159.113 40.238C158.592 40.0102 158.14 39.6948 157.749 39.2831C157.358 38.8801 157.054 38.407 156.829 37.8638C156.611 37.3294 156.499 36.7512 156.499 36.1292C156.499 35.5072 156.611 34.929 156.829 34.3946C157.046 33.8602 157.358 33.3871 157.749 32.9841C158.14 32.5811 158.592 32.257 159.113 32.0292C159.634 31.8014 160.19 31.6875 160.78 31.6875C161.371 31.6875 161.926 31.8014 162.448 32.0292C162.969 32.257 163.42 32.5723 163.811 32.9841C164.202 33.3871 164.506 33.8602 164.732 34.3946C164.949 34.929 165.062 35.5072 165.062 36.1292C165.062 36.7512 164.949 37.3207 164.732 37.8638C164.515 38.3982 164.202 38.8713 163.811 39.2831C163.42 39.6861 162.969 40.0102 162.448 40.238C161.926 40.4658 161.371 40.5797 160.78 40.5797Z" fill="white"></path>
    <path d="M170.021 40.5797C169.039 40.5797 168.31 40.3081 167.815 39.7737C167.32 39.2306 167.076 38.4246 167.076 37.347V31.854H167.858V37.1805C167.858 38.0654 168.04 38.7224 168.396 39.1605C168.753 39.5897 169.3 39.8088 170.021 39.8088C170.741 39.8088 171.28 39.5897 171.636 39.1605C171.992 38.7224 172.174 38.0654 172.174 37.1805V31.854H172.965V37.347C172.965 38.4246 172.721 39.2306 172.226 39.7737C171.731 40.3169 171.002 40.5797 170.021 40.5797Z" fill="white"></path>
    <path d="M179.339 40.5797C178.705 40.5797 178.115 40.4658 177.568 40.2468C177.02 40.019 176.543 39.7036 176.143 39.3006C175.735 38.8976 175.422 38.4245 175.197 37.8901C174.971 37.3469 174.858 36.7687 174.858 36.138C174.858 35.5072 174.971 34.929 175.197 34.3858C175.422 33.8426 175.744 33.3783 176.143 32.9753C176.551 32.5723 177.02 32.257 177.568 32.0292C178.115 31.8014 178.705 31.6875 179.339 31.6875C179.869 31.6875 180.373 31.7663 180.833 31.924C181.302 32.0817 181.71 32.3008 182.066 32.5723L181.693 33.2294C181.389 32.9841 181.041 32.7914 180.642 32.6599C180.242 32.5285 179.826 32.4672 179.374 32.4672C178.836 32.4672 178.34 32.5636 177.898 32.7476C177.455 32.9315 177.064 33.1944 176.734 33.5273C176.404 33.8602 176.152 34.2456 175.97 34.6924C175.787 35.1392 175.7 35.6211 175.7 36.1292C175.7 36.6373 175.787 37.1192 175.97 37.566C176.152 38.0128 176.404 38.3982 176.734 38.7311C177.064 39.0641 177.455 39.3181 177.898 39.5109C178.349 39.6948 178.836 39.7912 179.374 39.7912C179.817 39.7912 180.242 39.7211 180.642 39.5897C181.041 39.4583 181.389 39.2743 181.693 39.0203L182.066 39.6773C181.71 39.9489 181.302 40.1591 180.842 40.3256C180.381 40.4833 179.878 40.5621 179.339 40.5621" fill="white"></path>
    <path d="M183.786 40.4132V31.8452H184.568V35.77L188.38 31.8452H189.37L185.254 36.0854L189.796 40.4132H188.701L184.568 36.5235V40.4132H183.786Z" fill="white"></path>
    <path d="M193.591 31.1621L193.2 30.873L194.181 28.9019L194.772 29.3311L193.591 31.1621ZM191.446 40.4135V31.8455H195.719V32.5376H192.227V35.7615H195.597V36.4536H192.227V39.7039H195.719V40.396H191.446V40.4135Z" fill="white"></path>
    <path d="M197.725 40.4132V31.8452H198.506V35.77H203.144V31.8452H203.926V40.4132H203.144V36.4709H198.506V40.4132H197.725Z" fill="white"></path>
    <path d="M210.326 39.8175C210.813 39.8175 211.255 39.7211 211.672 39.5371C212.089 39.3532 212.454 39.0903 212.767 38.7487C213.079 38.4158 213.322 38.0215 213.496 37.5747C213.67 37.1279 213.757 36.6461 213.757 36.1292C213.757 35.6123 213.67 35.1305 213.496 34.6837C213.322 34.2369 213.079 33.8426 212.767 33.5097C212.454 33.1768 212.089 32.914 211.672 32.73C211.255 32.5461 210.813 32.4497 210.326 32.4497C209.84 32.4497 209.388 32.5461 208.971 32.73C208.555 32.9228 208.19 33.1768 207.877 33.5097C207.565 33.8426 207.321 34.2369 207.139 34.6837C206.965 35.1305 206.878 35.6123 206.878 36.1292C206.878 36.6461 206.965 37.1279 207.139 37.5747C207.313 38.0215 207.565 38.4158 207.877 38.7487C208.19 39.0816 208.555 39.3444 208.971 39.5371C209.388 39.7211 209.84 39.8175 210.326 39.8175ZM210.326 40.5797C209.736 40.5797 209.18 40.4658 208.659 40.238C208.138 40.0102 207.686 39.6948 207.295 39.2831C206.904 38.8801 206.601 38.407 206.375 37.8638C206.158 37.3294 206.045 36.7512 206.045 36.1292C206.045 35.5072 206.158 34.929 206.375 34.3946C206.592 33.8602 206.904 33.3871 207.295 32.9841C207.686 32.5811 208.138 32.257 208.659 32.0292C209.18 31.8014 209.736 31.6875 210.326 31.6875C210.917 31.6875 211.473 31.8014 211.994 32.0292C212.515 32.257 212.966 32.5723 213.357 32.9841C213.748 33.3871 214.052 33.8602 214.278 34.3946C214.495 34.929 214.608 35.5072 214.608 36.1292C214.608 36.7512 214.495 37.3207 214.278 37.8638C214.061 38.3982 213.748 38.8713 213.357 39.2831C212.966 39.6861 212.515 40.0102 211.994 40.238C211.473 40.4658 210.917 40.5797 210.326 40.5797Z" fill="white"></path>
    <path d="M120.891 54.8336V46.2656H121.681V50.1904L125.485 46.2656H126.475L122.359 50.5058L126.901 54.8336H125.807L121.681 50.9439V54.8336H120.891Z" fill="white"></path>
    <path d="M129.333 50.5409H130.566C131 50.5409 131.374 50.4708 131.678 50.3131C131.99 50.1642 132.233 49.9539 132.398 49.6736C132.572 49.402 132.65 49.0778 132.65 48.7011C132.65 48.1404 132.468 47.7024 132.094 47.3782C131.721 47.0629 131.209 46.8964 130.557 46.8964H129.324V50.5233L129.333 50.5409ZM128.551 54.8336V46.2656H130.757C131.313 46.2656 131.79 46.362 132.199 46.5547C132.607 46.7475 132.919 47.0278 133.137 47.387C133.362 47.7462 133.467 48.1842 133.467 48.6836C133.467 49.1391 133.371 49.5509 133.189 49.9013C133.006 50.2518 132.737 50.5409 132.398 50.7511C132.06 50.9701 131.651 51.1016 131.182 51.1454L134.005 54.8249H133.015L130.305 51.2154H129.341V54.8249H128.56L128.551 54.8336Z" fill="white"></path>
    <path d="M137.305 51.4082H140.423L138.869 47.3082L137.305 51.4082ZM135.16 54.8336L138.504 46.2656H139.233L142.577 54.8336H141.734L140.701 52.1003H137.053L136.011 54.8336H135.169H135.16Z" fill="white"></path>
    <path d="M145.747 55.0001C144.991 55.0001 144.34 54.7373 143.793 54.2029L144.105 53.5458C144.557 54.0101 145.078 54.2467 145.677 54.2467C146.277 54.2467 146.702 54.0627 147.023 53.7035C147.345 53.3443 147.501 52.8362 147.501 52.1791V46.2656H148.274V52.4244C148.274 53.2392 148.048 53.87 147.605 54.3168C147.162 54.7723 146.537 55.0001 145.747 55.0001Z" fill="white"></path>
    <path d="M150.819 54.8336V46.2656H155.091V46.9665H151.6V50.1904H154.97V50.8825H151.6V54.1328H155.091V54.8336H150.819Z" fill="white"></path>
    <path d="M2.90938 2.53174H0V24.1533H2.90938V2.53174Z" fill="white"></path>
    <path d="M43.9012 2.50537C42.2859 2.50537 40.7574 2.79448 39.3591 3.37269C37.9609 3.9509 36.719 4.75688 35.6595 5.77313C34.5999 6.78938 33.7662 7.9896 33.1756 9.34752C32.5851 10.6967 32.2898 12.1772 32.2898 13.7367C32.2898 15.2961 32.5851 16.7854 33.1756 18.1258C33.7662 19.4749 34.5999 20.6752 35.6595 21.6914C36.719 22.7077 37.9696 23.5224 39.3678 24.0919C40.7748 24.6701 42.2946 24.9592 43.8926 24.9592C45.2474 24.9592 46.5327 24.7577 47.7138 24.3722C48.7907 24.013 49.7461 23.5487 50.5364 22.9968L49.2771 20.5525C48.6431 21.0081 47.9136 21.376 47.0885 21.6389C46.1506 21.9455 45.1432 22.0944 44.101 22.0944C42.8678 22.0944 41.7127 21.8754 40.6619 21.4549C39.6197 21.0344 38.6904 20.4299 37.9175 19.6764C37.1445 18.923 36.5279 18.0294 36.1024 17.0132C35.6768 16.0057 35.4597 14.9018 35.4597 13.7279C35.4597 12.554 35.6768 11.4589 36.1024 10.4426C36.5279 9.43513 37.1445 8.53277 37.9175 7.77934C38.6904 7.02592 39.6197 6.43019 40.6619 6.00091C41.704 5.57163 42.8591 5.36138 44.0923 5.36138C45.1345 5.36138 46.1332 5.51907 47.0799 5.81694C47.8962 6.07976 48.6344 6.44771 49.2597 6.90327L50.519 4.45902C49.7113 3.88957 48.7473 3.41649 47.653 3.07482C46.4632 2.69811 45.1953 2.50537 43.8752 2.50537" fill="white"></path>
    <path d="M78.1449 54.8774H82.1746L71.3535 43.76L80.9501 33.2471H77.4414L68.2183 42.954L68.2964 33.2471H65.3958V54.8774H68.3051V45.0741L78.1449 54.8774Z" fill="white"></path>
    <path d="M40.2276 43.9876C40.2276 50.0325 35.3729 54.9298 29.3804 54.9298C23.388 54.9298 18.5332 50.0325 18.5332 43.9876C18.5332 37.9427 23.388 33.0454 29.3804 33.0454C35.3729 33.0454 40.2276 37.9427 40.2276 43.9876Z" fill="#EEB400"></path>
    <path d="M109.966 54.9035H108.976L78.7356 2.51416H79.7257L109.966 54.9035Z" fill="white"></path>
  </g>
  <defs>
    <clipPath id="clip0_72_2178">
      <rect width="214.608" height="55" fill="white"></rect>
    </clipPath>
  </defs>
</svg>
