<?xml version="1.0" encoding="UTF-8"?>
<svg xmlns="http://www.w3.org/2000/svg" width="108.141" height="19.531" viewBox="0 0 108.141 19.531">
  <path id="Path_10936" data-name="Path 10936" d="M14.5,0H11.047L4.2-10V0H1.191V-14.648H4.648L11.5-4.631V-14.648H14.5ZM25.6,0H23.156l-.148-1.16a3.634,3.634,0,0,1-1.326,1A4.194,4.194,0,0,1,19.943.2a4.054,4.054,0,0,1-1.826-.4A3.15,3.15,0,0,1,16.857-1.3,2.815,2.815,0,0,1,16.4-2.881a2.8,2.8,0,0,1,.5-1.648,3.357,3.357,0,0,1,1.37-1.116,4.669,4.669,0,0,1,1.989-.405,6.048,6.048,0,0,1,1.313.145,5.983,5.983,0,0,1,1.228.411v-.258a1.6,1.6,0,0,0-.329-1.008,2.146,2.146,0,0,0-.9-.662,3.306,3.306,0,0,0-1.278-.236,4.217,4.217,0,0,0-1.329.217A4.1,4.1,0,0,0,17.75-6.8L16.988-8.94A9.511,9.511,0,0,1,18.98-9.7a7.877,7.877,0,0,1,1.955-.258,5.172,5.172,0,0,1,2.474.56,3.947,3.947,0,0,1,1.618,1.584A4.882,4.882,0,0,1,25.6-5.4ZM20.555-1.967a2.441,2.441,0,0,0,1.069-.242,2.243,2.243,0,0,0,.825-.66,1.574,1.574,0,0,0,.336-.93v-.072a3.441,3.441,0,0,0-.951-.45,3.64,3.64,0,0,0-1.061-.159,2.255,2.255,0,0,0-1.308.349,1.064,1.064,0,0,0-.5.913,1.073,1.073,0,0,0,.207.643,1.369,1.369,0,0,0,.569.448A1.991,1.991,0,0,0,20.555-1.967ZM27.1-.84l.615-2.383a3.05,3.05,0,0,0,.786.6,4.967,4.967,0,0,0,1.064.435,3.981,3.981,0,0,0,1.079.161,1.684,1.684,0,0,0,.947-.229.712.712,0,0,0,.342-.62.721.721,0,0,0-.229-.542,2.129,2.129,0,0,0-.615-.391q-.386-.171-.854-.337-.635-.244-1.3-.566A3.3,3.3,0,0,1,27.807-5.6a2.245,2.245,0,0,1-.459-1.475A2.58,2.58,0,0,1,27.807-8.6a2.957,2.957,0,0,1,1.3-1.006,4.967,4.967,0,0,1,1.953-.356,7.924,7.924,0,0,1,3.6.908l-.791,2.217a3.775,3.775,0,0,0-.781-.454,6.021,6.021,0,0,0-.962-.337,3.586,3.586,0,0,0-.884-.127,1.25,1.25,0,0,0-.747.2.628.628,0,0,0-.269.537.65.65,0,0,0,.186.454,1.889,1.889,0,0,0,.552.381q.366.181.9.386a13.5,13.5,0,0,1,1.343.581,3.453,3.453,0,0,1,1.143.9,2.264,2.264,0,0,1,.464,1.489,2.649,2.649,0,0,1-.493,1.592,3.18,3.18,0,0,1-1.387,1.06A5.373,5.373,0,0,1,30.844.2,7.185,7.185,0,0,1,27.1-.84Zm5.234-10.508H30.062l-2.148-3.3h2.061l1.23,2.148,1.221-2.148H34.5ZM39.518,0h-3V-14.648h3ZM50.611,0H48.17l-.146-1.162a3.66,3.66,0,0,1-1.328,1A4.182,4.182,0,0,1,44.957.2a4.071,4.071,0,0,1-1.826-.4,3.13,3.13,0,0,1-1.26-1.094,2.824,2.824,0,0,1-.459-1.587,2.81,2.81,0,0,1,.5-1.65,3.348,3.348,0,0,1,1.372-1.118,4.672,4.672,0,0,1,1.987-.405,6.039,6.039,0,0,1,1.313.146,5.956,5.956,0,0,1,1.226.41v-.254a1.608,1.608,0,0,0-.327-1.011,2.118,2.118,0,0,0-.9-.659,3.329,3.329,0,0,0-1.274-.234,4.277,4.277,0,0,0-1.333.215A4.01,4.01,0,0,0,42.76-6.8L42-8.936A9.512,9.512,0,0,1,44-9.7a7.883,7.883,0,0,1,1.958-.259,5.146,5.146,0,0,1,2.471.562A3.961,3.961,0,0,1,50.04-7.817,4.87,4.87,0,0,1,50.611-5.4ZM45.572-1.963a2.427,2.427,0,0,0,1.064-.244,2.22,2.22,0,0,0,.825-.664A1.61,1.61,0,0,0,47.8-3.8v-.068a3.52,3.52,0,0,0-.952-.454,3.576,3.576,0,0,0-1.06-.161,2.251,2.251,0,0,0-1.309.352,1.063,1.063,0,0,0-.508.908,1.075,1.075,0,0,0,.21.649,1.389,1.389,0,0,0,.571.449A1.994,1.994,0,0,0,45.572-1.963Zm1.387-9.385H44.967l1.387-3.3h2.539Zm8.65,16.23H52.8V-9.766h2.463l.143,1.332a4.442,4.442,0,0,1,1.5-1.122,4.5,4.5,0,0,1,1.911-.405,4.378,4.378,0,0,1,2.389.661,4.655,4.655,0,0,1,1.65,1.809,5.519,5.519,0,0,1,.6,2.608,5.522,5.522,0,0,1-.6,2.606,4.652,4.652,0,0,1-1.65,1.811A4.378,4.378,0,0,1,58.818.2a4.513,4.513,0,0,1-1.773-.345,4.468,4.468,0,0,1-1.436-.964Zm2.5-7.207a2.489,2.489,0,0,0,1.286-.329,2.319,2.319,0,0,0,.875-.909,2.727,2.727,0,0,0,.315-1.324,2.71,2.71,0,0,0-.317-1.326,2.355,2.355,0,0,0-.875-.909,2.46,2.46,0,0,0-1.28-.331,2.508,2.508,0,0,0-1.227.3A2.4,2.4,0,0,0,56-6.324a2.607,2.607,0,0,0-.39,1.209v.482A2.585,2.585,0,0,0,56-3.44a2.346,2.346,0,0,0,.879.819A2.543,2.543,0,0,0,58.105-2.324ZM74.982,0h-2.8V-5.078a2.639,2.639,0,0,0-.52-1.738,1.777,1.777,0,0,0-1.444-.625,2.1,2.1,0,0,0-1.136.306,2.046,2.046,0,0,0-.765.871,3.046,3.046,0,0,0-.273,1.339V0h-2.8V-9.766h2.269L67.6-8.2a3.474,3.474,0,0,1,1.407-1.31,4.409,4.409,0,0,1,2.032-.45A3.762,3.762,0,0,1,73.93-8.835,4.353,4.353,0,0,1,74.982-5.74ZM86.621,0H84.348l-.094-1.564a3.484,3.484,0,0,1-1.373,1.31,4.236,4.236,0,0,1-2,.45,3.8,3.8,0,0,1-2.934-1.15,4.48,4.48,0,0,1-1.066-3.168V-9.766h2.8v5a2.714,2.714,0,0,0,.54,1.789,1.822,1.822,0,0,0,1.479.648A1.918,1.918,0,0,0,83.246-3a2.759,2.759,0,0,0,.572-1.837V-9.766h2.8Zm8.715,0H92.328V-12.018h-4.32v-2.631H99.656v2.631h-4.32Zm8.779.2a5.439,5.439,0,0,1-2.69-.661,4.9,4.9,0,0,1-1.869-1.809,5.014,5.014,0,0,1-.681-2.608,5.007,5.007,0,0,1,.681-2.6A4.916,4.916,0,0,1,101.425-9.3a5.427,5.427,0,0,1,2.69-.663A5.384,5.384,0,0,1,106.8-9.3a4.9,4.9,0,0,1,1.854,1.811,5.035,5.035,0,0,1,.676,2.6,5.043,5.043,0,0,1-.676,2.608A4.885,4.885,0,0,1,106.8-.466,5.4,5.4,0,0,1,104.115.2Zm-.01-2.512a2.22,2.22,0,0,0,1.208-.335,2.365,2.365,0,0,0,.84-.918,2.8,2.8,0,0,0,.308-1.325,2.736,2.736,0,0,0-.308-1.308,2.376,2.376,0,0,0-.84-.912,2.22,2.22,0,0,0-1.208-.335,2.23,2.23,0,0,0-1.21.335,2.37,2.37,0,0,0-.842.912,2.736,2.736,0,0,0-.308,1.308,2.8,2.8,0,0,0,.308,1.325,2.359,2.359,0,0,0,.842.918A2.23,2.23,0,0,0,104.105-2.316Z" transform="translate(-1.191 14.648)" fill="#fff"></path>
</svg>
