<?xml version="1.0" encoding="UTF-8" standalone="no"?>
<svg xmlns="http://www.w3.org/2000/svg" version="1.0" width="508.000000pt" height="132.000000pt" viewBox="0 0 508.000000 132.000000" preserveAspectRatio="xMidYMid meet">
  <g transform="translate(0.000000,132.000000) scale(0.100000,-0.100000)" fill="#fff" stroke="none">
    <path d="M2340 1160 l0 -60 235 -2 234 -3 -119 -148 c-116 -144 -120 -151 -120 -197 l0 -48 88 -4 c149 -7 232 -66 232 -165 0 -128 -99 -194 -275 -180 -84 6 -155 29 -214 69 -24 16 -44 28 -46 26 -1 -2 -15 -25 -30 -52 l-29 -49 31 -26 c17 -14 64 -39 105 -55 60 -24 92 -30 183 -34 133 -5 204 8 276 51 183 110 184 380 1 480 -27 15 -71 30 -96 33 -26 4 -49 10 -52 15 -2 5 52 78 121 164 118 147 125 158 125 200 l0 45 -325 0 -325 0 0 -60z"></path>
    <path d="M1767 980 c-85 -22 -163 -84 -189 -149 -15 -40 -13 -132 4 -166 35 -66 88 -98 216 -130 143 -35 181 -52 188 -82 5 -18 1 -31 -15 -46 -19 -19 -32 -22 -114 -21 -80 0 -101 4 -165 31 l-74 32 -29 -64 c-16 -36 -29 -71 -29 -78 0 -20 85 -57 168 -73 248 -47 444 36 460 195 6 69 -4 115 -35 151 -36 44 -87 67 -221 101 -131 33 -162 49 -162 83 0 66 122 87 250 42 41 -14 78 -22 81 -18 4 4 19 36 33 72 31 75 29 79 -59 106 -60 19 -254 27 -308 14z"></path>
    <path d="M3500 971 c-108 -34 -191 -107 -239 -210 -22 -49 -26 -69 -26 -156 0 -87 3 -107 27 -157 66 -142 211 -228 381 -228 71 0 170 25 222 55 57 34 125 108 155 170 22 44 25 63 25 160 0 100 -3 115 -27 165 -52 103 -148 181 -257 206 -78 19 -195 17 -261 -5z m218 -166 c81 -35 124 -104 124 -202 -1 -158 -148 -257 -285 -193 -84 39 -124 118 -114 223 12 139 149 224 275 172z"></path>
    <path d="M310 611 l0 -371 105 0 105 0 0 95 0 95 58 0 59 0 64 -95 64 -95 108 0 c59 0 107 2 107 5 0 3 -31 52 -70 109 -68 101 -80 126 -60 126 18 0 81 64 101 103 45 87 31 214 -31 289 -18 21 -59 51 -98 70 l-67 33 -222 4 -223 3 0 -371z m360 200 c86 -17 124 -96 81 -167 -23 -38 -81 -56 -166 -52 l-60 3 -3 99 c-1 55 0 106 2 113 6 15 77 17 146 4z"></path>
    <path d="M1177 974 c-4 -4 -7 -171 -7 -371 l0 -363 105 0 105 0 -2 368 -3 367 -95 3 c-53 1 -99 0 -103 -4z"></path>
    <path d="M4247 974 c-4 -4 -7 -171 -7 -371 l0 -363 105 0 105 0 0 93 0 93 36 37 c20 20 40 35 45 32 4 -3 51 -61 104 -130 l97 -124 104 -3 c58 -2 112 -1 120 2 12 4 -16 47 -108 166 -171 221 -178 231 -178 244 0 6 65 82 145 168 l146 157 -106 3 c-58 1 -111 -1 -118 -5 -7 -4 -73 -72 -147 -151 -73 -78 -135 -140 -138 -137 -3 2 -5 69 -6 147 l-1 143 -95 3 c-53 1 -99 0 -103 -4z"></path>
  </g>
</svg>
