<?xml version="1.0" encoding="UTF-8" standalone="no"?>
<!-- Created with Inkscape (http://www.inkscape.org/) -->

<svg
   width="210mm"
   height="297mm"
   viewBox="0 0 210 297"
   version="1.1"
   id="svg4895"
   inkscape:version="1.1.2 (0a00cf5339, 2022-02-04)"
   sodipodi:docname="drawing.svg"
   xmlns:inkscape="http://www.inkscape.org/namespaces/inkscape"
   xmlns:sodipodi="http://sodipodi.sourceforge.net/DTD/sodipodi-0.dtd"
   xmlns="http://www.w3.org/2000/svg"
   xmlns:svg="http://www.w3.org/2000/svg">
  <sodipodi:namedview
     id="namedview4897"
     pagecolor="#888888"
     bordercolor="#666666"
     borderopacity="1.0"
     inkscape:pageshadow="2"
     inkscape:pageopacity="0"
     inkscape:pagecheckerboard="0"
     inkscape:document-units="mm"
     showgrid="false"
     inkscape:zoom="0.69664703"
     inkscape:cx="287.08943"
     inkscape:cy="446.42407"
     inkscape:window-width="1913"
     inkscape:window-height="991"
     inkscape:window-x="26"
     inkscape:window-y="23"
     inkscape:window-maximized="0"
     inkscape:current-layer="Group_399" />
  <defs
     id="defs4892">
    <clipPath
       id="clip-path">
      <path
         id="Path_641"
         data-name="Path 641"
         d="M 0,264.764 H 521.011 V -244.382 H 0 Z"
         transform="translate(0,244.382)"
         fill="none" />
    </clipPath>
  </defs>
  <g
     inkscape:label="Layer 1"
     inkscape:groupmode="layer"
     id="layer1">
    <g
       id="Group_399"
       data-name="Group 399"
       clip-path="url(#clip-path)"
       style="display:inline"
       transform="matrix(0.26458333,0,0,0.26458333,8.095351,54.362259)">
      <g
         id="Group_397"
         data-name="Group 397"
         transform="translate(379.364,287.926)"
         style="display:none">
        <path
           id="Path_890"
           data-name="Path 890"
           d="M 0.137,5.009 0.653,4.45 C 0.97,4.092 1.518,3.55 2.22,2.877 A 30.285,30.285 0 0 1 4.9,0.707 27.521,27.521 0 0 1 8.712,-1.608 28,28 0 0 1 19.406,-4.546 c 0.51,-0.048 1.023,-0.06 1.542,-0.065 0.275,0 0.479,-0.019 0.815,-0.01 l 0.76,0.044 a 23.268,23.268 0 0 1 3.121,0.3 l 1.61,0.258 c 0.525,0.121 1.042,0.271 1.565,0.406 a 23.205,23.205 0 0 1 3.081,1.019 30.309,30.309 0 0 1 2.94,1.363 c 0.938,0.531 1.852,1.1 2.738,1.69 a 28.863,28.863 0 0 1 4.665,4.129 c 0.338,0.377 0.673,0.75 1,1.121 0.313,0.388 0.592,0.794 0.885,1.181 0.293,0.387 0.581,0.775 0.844,1.171 0.244,0.406 0.485,0.81 0.723,1.208 a 18.068,18.068 0 0 1 1.252,2.385 c 0.181,0.4 0.375,0.777 0.542,1.165 q 0.213,0.594 0.415,1.163 a 28.93,28.93 0 0 1 1.177,4.238 29.421,29.421 0 0 1 0.4,3.363 c 0.035,0.942 0.067,1.679 0.085,2.183 -0.013,0.5 -0.019,0.758 -0.019,0.758 a 0.42704215,0.42704215 0 0 1 -0.854,-0.012 c 0,0 0,-0.265 0,-0.758 -0.025,-0.485 -0.067,-1.2 -0.117,-2.1 a 28.758,28.758 0 0 0 -0.444,-3.244 27.865,27.865 0 0 0 -1.2,-4.067 C 46.797,13.98 46.655,13.608 46.513,13.23 46.348,12.859 46.157,12.495 45.973,12.117 A 16.755,16.755 0 0 0 44.733,9.846 C 44.5,9.465 44.262,9.083 44.023,8.694 43.763,8.319 43.471,7.963 43.192,7.586 42.913,7.209 42.632,6.834 42.329,6.469 Q 41.845,5.941 41.35,5.411 A 27.548,27.548 0 0 0 36.829,1.538 C 35.984,0.988 35.1,0.459 34.2,-0.031 A 28.045,28.045 0 0 0 31.383,-1.281 21.7,21.7 0 0 0 28.45,-2.2 c -0.5,-0.119 -0.994,-0.256 -1.488,-0.36 l -1.488,-0.215 a 21.832,21.832 0 0 0 -3.031,-0.238 l -0.76,-0.031 -0.7,0.023 c -0.488,0.012 -0.971,0.033 -1.452,0.085 a 26.267,26.267 0 0 0 -10,2.923 A 25.593,25.593 0 0 0 6,2.211 28.169,28.169 0 0 0 3.533,4.28 C 2.914,4.9 2.426,5.38 2.1,5.769 L 1.594,6.334 A 0.98475797,0.98475797 0 0 1 0.126,5.021 Z"
           transform="translate(0.126,4.623)"
           fill="#ffffff"
           style="display:inline" />
      </g>
      <g
         id="Group_398"
         data-name="Group 398"
         transform="translate(84.558,126.487)"
         style="display:none">
        <path
           id="Path_891"
           data-name="Path 891"
           d="m 39.828,104.589 c -0.627,4.113 -7.963,6.719 -18.59,7.279 a 101.336,101.336 0 0 1 -14.85,-0.4 C 4.23,111.253 2.013,110.98 -0.239,110.635 q -2.788,-0.419 -5.448,-0.954 A 105.522,105.522 0 0 1 -18.38,106.4 c -11.571,-3.813 -19.021,-8.934 -18.338,-13.421 0.625,-4.111 7.963,-6.719 18.588,-7.279 a 101.349,101.349 0 0 1 14.853,0.4 c 2.16,0.215 4.375,0.488 6.627,0.833 q 2.791,0.419 5.448,0.954 a 105.763,105.763 0 0 1 12.694,3.279 71.436,71.436 0 0 1 6.971,2.681 4.725,4.725 0 0 0 8.121,4.815 c 2.348,1.992 3.533,4.021 3.244,5.927 z M 21.49,91.168 a 101.357,101.357 0 0 1 -5.6,8.634 c -1.571,2.19 -3.271,4.413 -5.1,6.619 -1.458,1.756 -2.925,3.45 -4.4,5.046 H 6.38 c -2.056,2.246 -4.131,4.321 -6.169,6.209 -10.15,9.392 -19.524,14.084 -23.319,10.955 -1.748,-1.442 -2.083,-4.367 -1.233,-8.236 a 3.008,3.008 0 0 0 1.01,0.169 3.246,3.246 0 0 0 3.242,-3.244 3.246,3.246 0 0 0 -2.223,-3.075 68.545,68.545 0 0 1 3.933,-7.842 102.266,102.266 0 0 1 5.6,-8.636 c 1.571,-2.188 3.271,-4.411 5.1,-6.617 1.458,-1.756 2.925,-3.448 4.4,-5.046 h 0.008 C -1.213,83.859 0.862,81.782 2.9,79.9 13.05,70.5 22.425,65.811 26.219,68.942 29.715,71.83 27.575,80.616 21.49,91.168 Z m 0.244,40.655 c -4.2,2.563 -12.8,-3.411 -21.526,-14.15 -1.971,-2.429 -3.954,-5.111 -5.9,-7.99 -1.01,-1.5 -2,-3.048 -2.983,-4.654 -1.494,-2.44 -2.869,-4.879 -4.113,-7.263 A 98.736,98.736 0 0 1 -18.128,85.7 c -3.6,-10.011 -4.046,-17.788 -0.5,-19.957 a 4.552,4.552 0 0 1 2.981,-0.54 3.252,3.252 0 0 0 -0.252,1.252 3.237,3.237 0 0 0 3.246,3.245 3.241,3.241 0 0 0 2.973,-1.945 c 3.794,2.5 8.169,6.713 12.58,12.14 1.973,2.433 3.954,5.115 5.9,7.992 1.01,1.5 2,3.048 2.983,4.656 1.494,2.438 2.869,4.877 4.111,7.261 a 98.767,98.767 0 0 1 5.346,12.065 c 3.596,10.013 4.044,17.786 0.493,19.955 z M 5.848,98.785 a 5.427,5.427 0 1 1 -5.43,-5.427 5.427,5.427 0 0 1 5.43,5.427 z m 31.5,-2.7 a 4.723,4.723 0 1 1 -4.729,-4.729 4.685,4.685 0 0 1 4.732,4.729 z M -9.409,66.457 a 3.147,3.147 0 0 1 -0.271,1.3 3.238,3.238 0 0 1 -2.971,1.943 3.238,3.238 0 0 1 -3.244,-3.242 3.252,3.252 0 0 1 0.252,-1.252 3.241,3.241 0 0 1 2.992,-1.992 3.251,3.251 0 0 1 3.242,3.243 z m -10.682,50.862 a 3.246,3.246 0 0 1 -3.244,3.244 3.008,3.008 0 0 1 -1.01,-0.169 3.226,3.226 0 0 1 -2.233,-3.075 3.245,3.245 0 0 1 3.244,-3.244 3.1,3.1 0 0 1 1.019,0.169 3.25,3.25 0 0 1 2.224,3.075 z M 241.713,-60.57 a 12.509,12.509 0 0 0 3.111,-8.271 H 256.7 m -19.049,5.167 a 7.44,7.44 0 0 0 2.081,-5.167 7.494,7.494 0 0 0 -7.49,-7.5 7.491,7.491 0 0 0 -7.488,7.5 7.492,7.492 0 0 0 7,7.473 m 37.672,-31.289 a 3.879,3.879 0 0 1 -3.879,3.881 3.882,3.882 0 0 1 -3.883,-3.881 3.883,3.883 0 0 1 3.883,-3.881 3.881,3.881 0 0 1 3.88,3.881 z m -66.8,0.038 c 8.444,-0.544 12.636,5.1 14.05,9.563 a 6.746,6.746 0 0 0 3.724,4.256 6.638,6.638 0 0 0 3.458,0.571 12.536,12.536 0 0 1 8.382,-3.2 12.529,12.529 0 0 1 8.19,3.031 5.989,5.989 0 0 0 2.95,-0.269 6.748,6.748 0 0 0 4.256,-4.465 c 1.44,-4.452 5.629,-10.029 14.027,-9.49 m -66.8,-0.038 a 3.88,3.88 0 0 0 3.881,3.881 3.882,3.882 0 0 0 3.883,-3.881 3.883,3.883 0 0 0 -3.883,-3.881 3.881,3.881 0 0 0 -3.884,3.884 z m 0.417,47.889 a 3.879,3.879 0 0 1 3.879,-3.881 3.882,3.882 0 0 1 3.883,3.881 3.883,3.883 0 0 1 -3.883,3.881 3.881,3.881 0 0 1 -3.882,-3.878 z m 6.1,-24.076 a 3.132,3.132 0 0 1 3.133,-3.133 3.132,3.132 0 0 1 3.131,3.133 3.132,3.132 0 0 1 -3.131,3.131 3.132,3.132 0 0 1 -3.14,-3.127 z m 61.919,0 a 3.13,3.13 0 0 1 -3.131,3.131 3.13,3.13 0 0 1 -3.131,-3.131 3.131,3.131 0 0 1 3.131,-3.133 3.131,3.131 0 0 1 3.123,3.137 z m -60.26,24.042 c 8.425,0.544 12.615,-5.075 14.04,-9.534 a 6.7,6.7 0 0 1 3.794,-4.283 c 0.119,-0.046 0.233,-0.088 0.348,-0.127 a 1.768,1.768 0 0 0 0.823,-2.719 12.521,12.521 0 0 1 -2.388,-7.375 h -11.88 m 50.248,20.743 -26.976,-20.618 3.221,33.8 6.542,-6.494 8.589,15.485 8.638,-4.794 -8.527,-15.369 z"
           transform="translate(36.762,96.538)"
           fill="none"
           stroke="#ffffff"
           stroke-linecap="round"
           stroke-width="1.259"
           style="display:none" />
      </g>
      <g
         id="Group_398-0"
         data-name="Group 398"
         transform="translate(103.39775,126.487)"
         style="display:inline">
        <path
           id="Path_891-5"
           data-name="Path 891"
           d="m 39.828,104.589 c -0.627,4.113 -7.963,6.719 -18.59,7.279 -4.95312,0.23016 -9.916453,0.0965 -14.85,-0.4 -2.158,-0.215 -4.375,-0.488 -6.627,-0.833 -1.8586667,-0.27933 -3.6746667,-0.59733 -5.448,-0.954 -4.2949152,-0.82952 -8.534095,-1.9253 -12.693,-3.281 -11.571,-3.813 -19.021,-8.934 -18.338,-13.421 0.625,-4.111 7.963,-6.719 18.588,-7.279 4.954118,-0.230259 9.9184557,-0.09657 14.853,0.4 2.16,0.215 4.375,0.488 6.627,0.833 1.8606667,0.279333 3.6766667,0.597333 5.448,0.954 4.295072,0.829432 8.534549,1.924536 12.694,3.279 2.368826,0.7715 4.695672,1.66639 6.971,2.681 -2.848982,5.3176 4.822365,9.866 8.121,4.815 2.348,1.992 3.533,4.021 3.244,5.927 z M 21.49,91.168 c -1.719262,2.970968 -3.588338,5.852682 -5.6,8.634 -1.571,2.19 -3.271,4.413 -5.1,6.619 -1.458,1.756 -2.925,3.45 -4.4,5.046 -2.0777099,2.19136 -4.2496999,4.41614 -6.179,6.209 -10.15,9.392 -19.524,14.084 -23.319,10.955 -1.748,-1.442 -2.083,-4.367 -1.233,-8.236 0.324532,0.11365 0.666148,0.17081 1.01,0.169 1.790373,-0.002 3.240898,-1.45363 3.242,-3.244 -0.0024,-1.39647 -0.897692,-2.63489 -2.223,-3.075 1.142202,-2.6953 2.455892,-5.31466 3.933,-7.842 1.720527,-2.97084 3.589561,-5.85315 5.6,-8.636 1.571,-2.188 3.271,-4.411 5.1,-6.617 1.458,-1.756 2.925,-3.448 4.4,-5.046 h 0.008 C -1.213,83.859 0.862,81.782 2.9,79.9 23.359627,59.728235 32.115509,72.398088 21.49,91.168 Z m 0.244,40.655 c -4.2,2.563 -12.8,-3.411 -21.526,-14.15 -1.971,-2.429 -3.954,-5.111 -5.9,-7.99 -1.01,-1.5 -2,-3.048 -2.983,-4.654 -1.494,-2.44 -2.869,-4.879 -4.113,-7.263 -3.875483,-7.008412 -11.635062,-27.962251 -5.84,-32.023 0.902866,-0.515079 1.954824,-0.705638 2.981,-0.54 -0.165926,0.396575 -0.251578,0.822113 -0.252,1.252 -0.0044,1.794392 1.45161,3.249995 3.246,3.245 1.289723,9.55e-4 2.45727,-0.76288 2.973,-1.945 3.794,2.5 8.169,6.713 12.58,12.14 1.973,2.433 3.954,5.115 5.9,7.992 2.605879,3.895103 5.06544,8.035706 7.094,11.917 2.048977,3.89799 3.834963,7.92865 5.346,12.065 3.596,10.013 4.044,17.786 0.493,19.955 z M 5.848,98.785 c -4.194013,15.02803 -17.445553,-4.881357 -5.43,-5.427 2.9984208,-0.0017 5.4300005,2.428579 5.43,5.427 z m 31.5,-2.7 c -0.0053,4.20514 -5.089368,6.30662 -8.062493,3.333493 C 26.312382,96.445368 28.413863,91.361346 32.619,91.356 c 2.726342,0.548384 4.6884,2.684354 4.729,4.729 z M -9.409,66.457 c 0.00316,0.447676 -0.089227,0.890876 -0.271,1.3 -0.515422,1.181199 -1.682246,1.944288 -2.971,1.943 -1.792205,0.0033 -3.246217,-1.449794 -3.244,-3.242 4.22e-4,-0.429887 0.08607,-0.855425 0.252,-1.252 1.701337,-3.350801 6.1421074,-1.554663 6.234,1.251 z m -10.682,50.862 c -0.0011,1.79115 -1.452845,3.2429 -3.244,3.244 -0.343852,0.002 -0.685468,-0.0554 -1.01,-0.169 -1.333142,-0.43129 -2.235445,-1.67383 -2.233,-3.075 5.52e-4,-1.79138 1.452617,-3.24345 3.244,-3.244 1.766001,0.0812 3.205376,1.8395 3.243,3.244 z M 241.713,-60.57 c 2.00871,-2.286704 3.11478,-5.227332 3.111,-8.271 H 256.7 m -19.049,5.167 c 1.33658,-1.387883 2.08258,-3.240176 2.081,-5.167 0.003,-4.139603 -3.3504,-7.497792 -7.49,-7.5 -4.13951,0.0017 -7.49297,3.360492 -7.488,7.5 0.001,3.945634 3.06288,7.21389 7,7.473 m 37.672,-31.289 c 0.001,2.143094 -1.73591,3.881 -3.879,3.881 -2.14397,5.52e-4 -3.88245,-1.737031 -3.883,-3.881 0.001,-2.143741 1.73926,-3.881 3.883,-3.881 2.14303,5.52e-4 3.88,1.737973 3.88,3.881 z m -66.8,0.038 c 8.444,-0.544 12.636,5.1 14.05,9.563 0.55808,1.895619 1.91924,3.451229 3.724,4.256 1.0807,0.496692 2.27499,0.6939 3.458,0.571 2.30354,-2.064216 5.2889,-3.203938 8.382,-3.2 3.00516,-0.0046 5.91185,1.071151 8.19,3.031 0.99034,0.158769 2.00471,0.06627 2.95,-0.269 2.05571,-0.714887 3.64041,-2.377403 4.256,-4.465 1.44,-4.452 5.629,-10.029 14.027,-9.49 m -66.8,-0.038 c -5.5e-4,2.143646 1.73735,3.881553 3.881,3.881 2.14397,5.52e-4 3.88245,-1.737031 3.883,-3.881 -0.001,-2.143741 -1.73926,-3.881 -3.883,-3.881 -2.14576,-0.0017 -3.88566,1.738239 -3.884,3.884 z m 0.417,47.889 c -0.001,-2.143094 1.73591,-3.881 3.879,-3.881 2.14397,-5.52e-4 3.88245,1.737031 3.883,3.881 -0.001,2.143741 -1.73926,3.881 -3.883,3.881 -2.14264,5.53e-4 -3.88034,-1.735364 -3.882,-3.878 z m 6.1,-24.076 c -5.5e-4,-1.730537 1.40246,-3.133553 3.133,-3.133 1.72976,5.52e-4 3.13155,1.403244 3.131,3.133 -5.5e-4,1.728975 -1.40203,3.130448 -3.131,3.131 -1.73093,0.0044 -3.13724,-1.396069 -3.14,-3.127 z m 61.919,0 c 5.5e-4,1.729432 -1.40157,3.131553 -3.131,3.131 -1.72943,5.53e-4 -3.13155,-1.401568 -3.131,-3.131 -10e-4,-1.729985 1.40102,-3.133 3.131,-3.133 1.72842,0.0044 3.12632,1.408574 3.123,3.137 z m -60.26,24.042 c 8.425,0.544 12.615,-5.075 14.04,-9.534 0.56082,-1.923044 1.95266,-3.494278 3.794,-4.283 0.119,-0.046 0.233,-0.088 0.348,-0.127 1.11756,-0.400224 1.53102,-1.766202 0.823,-2.719 -1.55612,-2.143824 -2.3922,-4.72595 -2.388,-7.375 h -11.88 m 50.248,20.743 -26.976,-20.618 3.221,33.8 6.542,-6.494 8.589,15.485 8.638,-4.794 -8.527,-15.369 z"
           transform="translate(36.762,96.538)"
           fill="none"
           stroke="#ffffff"
           stroke-linecap="round"
           stroke-width="1.259"
           style="display:inline"
           sodipodi:nodetypes="ccccccccccccccccccccccccccccccccccccccccccccccccccccsccccccccccccccccccccccccccccccccccccccccccccccccccsscccccccccccccccccccccccc" />
      </g>
    </g>
  </g>
</svg>
