<?xml version="1.0" encoding="UTF-8" standalone="no"?>
<svg
   width="176mm"
   height="125mm"
   viewBox="0 0 665.19683 472.44094"
   version="1.1"
   id="svg560"
   sodipodi:docname="groups.svg"
   inkscape:version="1.1.2 (0a00cf5339, 2022-02-04)"
   xmlns:inkscape="http://www.inkscape.org/namespaces/inkscape"
   xmlns:sodipodi="http://sodipodi.sourceforge.net/DTD/sodipodi-0.dtd"
   xmlns="http://www.w3.org/2000/svg"
   xmlns:svg="http://www.w3.org/2000/svg">
  <sodipodi:namedview
     id="namedview562"
     pagecolor="#888888"
     bordercolor="#666666"
     borderopacity="1.0"
     inkscape:pageshadow="2"
     inkscape:pageopacity="0"
     inkscape:pagecheckerboard="0"
     showgrid="false"
     units="mm"
     inkscape:zoom="1.5359052"
     inkscape:cx="210.95052"
     inkscape:cy="254.24746"
     inkscape:window-width="2093"
     inkscape:window-height="1510"
     inkscape:window-x="26"
     inkscape:window-y="23"
     inkscape:window-maximized="0"
     inkscape:current-layer="svg560"
     inkscape:document-units="mm" />
  <defs
     id="defs6">
    <clipPath
       id="clip-path">
      <path
         id="Path_641"
         data-name="Path 641"
         d="M 0,264.764 H 521.011 V -244.382 H 0 Z"
         transform="translate(0,244.382)"
         fill="none" />
    </clipPath>
    <clipPath
       id="clip-path-39">
      <path
         id="Path_884"
         data-name="Path 884"
         d="m 175.376,-37.956 h 61.642 v -71.556 h -61.642 z"
         transform="translate(-175.376,109.512)"
         fill="none" />
    </clipPath>
  </defs>
  <g
     id="Group_160"
     data-name="Group 160"
     transform="translate(99.77,42.88)" />
  <g
     id="Group_148"
     data-name="Group 148"
     clip-path="url(#clip-path)">
    <g
       id="Group_135"
       data-name="Group 135"
       transform="translate(66.16,60.851)"
       style="display:inline">
      <path
         id="Path_628"
         data-name="Path 628"
         d="M 103.351,0 V 107.564 L 2.327,180.968 -95.4,159.038 C -75.057,68.029 6.206,0 103.351,0"
         transform="translate(95.395)"
         fill="#ff4524" />
    </g>
    <g
       id="Group_136"
       data-name="Group 136"
       transform="translate(66.16,60.851)"
       style="display:inline">
      <path
         id="Path_629"
         data-name="Path 629"
         d="M 103.351,0 V 107.564 L 2.327,180.968 -95.4,159.038 C -75.057,68.029 6.206,0 103.351,0 Z"
         transform="translate(95.395)"
         fill="none"
         stroke="#ffffff"
         stroke-width="1.889" />
    </g>
    <g
       id="Group_137"
       data-name="Group 137"
       transform="translate(264.905,60.851)"
       style="display:inline">
      <path
         id="Path_630"
         data-name="Path 630"
         d="M 103.357,82.7 5.638,104.63 -95.4,31.228 V -76.336 c 97.156,0 178.419,68.029 198.757,159.036"
         transform="translate(95.401,76.336)"
         fill="#ec747d" />
    </g>
    <g
       id="Group_138"
       data-name="Group 138"
       transform="translate(264.905,60.851)"
       style="display:inline">
      <path
         id="Path_631"
         data-name="Path 631"
         d="M 103.357,82.7 5.638,104.63 -95.4,31.228 V -76.336 c 97.156,0 178.419,68.029 198.757,159.036 z"
         transform="translate(95.401,76.336)"
         fill="none"
         stroke="#ffffff"
         stroke-width="1.889" />
    </g>
    <g
       id="Group_139"
       data-name="Group 139"
       transform="translate(327.352,219.889)"
       style="display:inline">
      <path
         id="Path_632"
         data-name="Path 632"
         d="M 73.437,23.2 A 203.454,203.454 0 0 1 -19.239,193.983 L -67.784,119.295 -29.193,0.514 68.529,-21.416 A 203.8,203.8 0 0 1 73.437,23.2"
         transform="translate(67.784,21.416)"
         fill="#2bacb3" />
    </g>
    <g
       id="Group_140"
       data-name="Group 140"
       transform="translate(327.352,219.889)"
       style="display:inline">
      <path
         id="Path_633"
         data-name="Path 633"
         d="M 73.437,23.2 A 203.454,203.454 0 0 1 -19.239,193.983 L -67.784,119.295 -29.193,0.514 68.529,-21.416 A 203.8,203.8 0 0 1 73.437,23.2 Z"
         transform="translate(67.784,21.416)"
         fill="none"
         stroke="#ffffff"
         stroke-width="1.889" />
    </g>
    <g
       id="Group_141"
       data-name="Group 141"
       transform="translate(153.926,360.597)">
      <path
         id="Path_634"
         data-name="Path 634"
         d="M 115.429,38.84 A 202.735,202.735 0 0 1 4.436,71.716 202.661,202.661 0 0 1 -106.543,38.84 L -58,-35.85 H 66.879 Z"
         transform="translate(106.543,35.85)"
         fill="#28374f" />
    </g>
    <g
       id="Group_142"
       data-name="Group 142"
       transform="translate(153.926,360.597)"
       style="display:inline">
      <path
         id="Path_635"
         data-name="Path 635"
         d="M 115.429,38.84 A 202.735,202.735 0 0 1 4.436,71.716 202.661,202.661 0 0 1 -106.543,38.84 L -58,-35.85 H 66.879 Z"
         transform="translate(106.543,35.85)"
         fill="none"
         stroke="#ffffff"
         stroke-width="1.889" />
    </g>
    <g
       id="Group_143"
       data-name="Group 143"
       transform="translate(61.252,219.89)"
       style="display:inline">
      <path
         id="Path_636"
         data-name="Path 636"
         d="m 73.437,73.171 -48.549,74.69 a 203.451,203.451 0 0 1 -92.672,-170.783 203.652,203.652 0 0 1 4.908,-44.616 l 97.72,21.93 z"
         transform="translate(67.784,67.538)"
         fill="#ffcf52" />
    </g>
    <g
       id="Group_144"
       data-name="Group 144"
       transform="translate(61.252,168.415)"
       style="display:inline">
      <path
         id="Path_637"
         data-name="Path 637"
         d="m 73.437,99.938 -48.549,74.69 A 203.451,203.451 0 0 1 -67.784,3.846 203.652,203.652 0 0 1 -62.876,-40.77 l 97.72,21.93 z M 236.907,-18.843 198.314,99.938 H 73.437 L 34.844,-18.843 135.87,-92.243 Z"
         transform="translate(67.784,92.245)"
         fill="none"
         stroke="#ffffff"
         stroke-width="1.889" />
    </g>
  </g>
  <g
     id="Group_388"
     data-name="Group 388"
     clip-path="url(#clip-path)"
     style="display:inline">
    <g
       id="Group_384"
       data-name="Group 384"
       transform="translate(378.071,292.958)"
       style="display:inline">
      <path
         id="Path_877"
         data-name="Path 877"
         d="m 8.3,9.066 h 15.019 l -0.642,3.867 h -15 A 24.092,24.092 0 0 0 7.7,16.81 h 14.334 l -0.652,3.867 h -13 c 1.606,5.919 5.725,10.69 12.477,10.69 a 17.656,17.656 0 0 0 5.99,-1.1 l 0.235,0.869 a 23.606,23.606 0 0 0 -4.773,6.85 22.866,22.866 0 0 1 -2.415,0.129 c -12.438,0 -19.467,-8.04 -21.467,-17.434 h -6.092 l 0.644,-3.867 h 4.9 A 27.681,27.681 0 0 1 -2.1,12.933 H -6.367 L -6.046,11 A 40.687,40.687 0 0 1 -1.579,8.4 C 5.1,4.928 9.552,-0.737 10.188,-6.535 a 20.765,20.765 0 0 1 8.786,-1.833 35.842,35.842 0 0 1 10.16,1.617 l -1.488,6.117 a 26.931,26.931 0 0 0 -7.429,-1.2 c -6.388,0 -10.394,4.883 -11.915,10.9"
         transform="translate(7.663,8.368)"
         fill="#ffffff" />
    </g>
    <g
       id="Group_385"
       data-name="Group 385"
       transform="translate(407.653,318.663)"
       style="display:inline">
      <path
         id="Path_878"
         data-name="Path 878"
         d="M 1.022,14.048 A 14.88,14.88 0 0 1 2.937,7.732 L 3.058,7.511 V 7.25 H 2.075 L 2.938,7.723 A 20.821,20.821 0 0 1 5.628,3.931 27.766,27.766 0 0 1 13.65,-2.2 38.352,38.352 0 0 0 21.419,-7.092 13.5,13.5 0 0 0 24.194,-10.6 l -0.835,-0.517 -0.829,0.529 a 25.96,25.96 0 0 1 2.633,6 30.4,30.4 0 0 1 1.4,8.865 21.2,21.2 0 0 1 -1.521,8.123 18.535,18.535 0 0 1 -5.513,7.329 C 15.523,23 12.3,23.993 9.8,23.995 A 8.9,8.9 0 0 1 4.289,22.089 9.826,9.826 0 0 1 2.889,20.77 C 2.733,20.593 2.618,20.447 2.545,20.349 L 2.466,20.239 2.449,20.216 v 0 l -0.821,0.542 0.848,-0.5 C 2.332,20.008 2.243,19.877 2.201,19.802 a 3.033,3.033 0 0 1 -0.169,-0.363 0.98339527,0.98339527 0 0 0 -1.819,0.748 4.734,4.734 0 0 0 0.285,0.6 c 0.092,0.156 0.156,0.25 0.279,0.463 L 0.79,21.271 0.8,21.3 a 10.713,10.713 0 0 0 2.285,2.35 10.888,10.888 0 0 0 6.715,2.311 c 3.042,0 6.731,-1.233 10.975,-4.7 a 20.5,20.5 0 0 0 6.086,-8.1 23.169,23.169 0 0 0 1.675,-8.888 32.266,32.266 0 0 0 -1.492,-9.446 27.851,27.851 0 0 0 -2.856,-6.475 l -0.84,-1.315 -0.823,1.327 a 11.61,11.61 0 0 1 -2.41,3.077 36.692,36.692 0 0 1 -7.367,4.615 29.71,29.71 0 0 0 -8.594,6.571 22.846,22.846 0 0 0 -2.942,4.15 L 1.091,7 V 7.26 H 2.074 L 1.211,6.787 a 16.869,16.869 0 0 0 -2.153,7.153 0.984,0.984 0 0 0 0.929,1.035 0.982,0.982 0 0 0 1.035,-0.927"
         transform="translate(0.944,12.967)"
         fill="#ffffff" />
    </g>
    <g
       id="Group_386"
       data-name="Group 386"
       transform="translate(371.72,284.182)"
       style="display:inline">
      <path
         id="Path_879"
         data-name="Path 879"
         d="M 10.929,4.762 A 11.359,11.359 0 0 1 9.692,9.635 l -0.148,0.3 0.067,0.333 0.965,-0.194 -0.883,-0.433 a 15.9,15.9 0 0 1 -1.927,3 21.3,21.3 0 0 1 -5.944,4.99 30.087,30.087 0 0 0 -5.9,4.1 10.669,10.669 0 0 0 -2.064,2.869 l 0.858,0.479 0.8,-0.567 A 20.4,20.4 0 0 1 -6.838,19.647 22.7,22.7 0 0 1 -8.126,12.37 14.469,14.469 0 0 1 -3.265,1.17 c 3.136,-2.8 5.652,-3.6 7.577,-3.6 a 6.728,6.728 0 0 1 3.971,1.31 7.42,7.42 0 0 1 1.042,0.908 c 0.115,0.121 0.2,0.221 0.254,0.285 L 9.637,0.146 9.65,0.161 9.823,0.034 9.65,0.159 v 0 L 9.823,0.034 9.65,0.159 10.45,-0.418 9.621,0.118 C 9.746,0.31 9.821,0.412 9.85,0.46 A 2.108,2.108 0 0 1 9.979,0.708 0.98224259,0.98224259 0 1 0 11.76,-0.121 3.675,3.675 0 0 0 11.5,-0.6 C 11.417,-0.729 11.367,-0.8 11.265,-0.952 L 11.25,-0.973 11.24,-1 a 8.466,8.466 0 0 0 -1.8,-1.715 8.713,8.713 0 0 0 -5.123,-1.68 c -2.5,0 -5.517,1.073 -8.89,4.1 a 16.452,16.452 0 0 0 -5.515,12.665 24.664,24.664 0 0 0 1.394,7.919 22.269,22.269 0 0 0 2.608,5.361 l 0.9,1.277 0.763,-1.365 a 8.7,8.7 0 0 1 1.723,-2.423 28.18,28.18 0 0 1 5.5,-3.808 23.316,23.316 0 0 0 6.5,-5.459 18.03,18.03 0 0 0 2.163,-3.365 l 0.146,-0.3 -0.067,-0.335 -0.965,0.2 0.883,0.433 A 13.289,13.289 0 0 0 12.9,4.78 0.98354588,0.98354588 0 1 0 10.933,4.761"
         transform="translate(10.088,4.395)"
         fill="#ffffff" />
    </g>
    <g
       id="Group_387"
       data-name="Group 387"
       transform="translate(386.288,280.989)"
       style="display:inline">
      <path
         id="Path_880"
         data-name="Path 880"
         d="M 7.748,0 H 7.382 a 35.527,35.527 0 0 0 -14.534,3.194 8.494,8.494 0 0 1 2.431,0.4 c 0.927,-0.365 1.86,-0.683 2.794,-0.956 a 34.116,34.116 0 0 1 9.7,-1.4 c 0.825,0 1.638,0.031 2.429,0.088 a 33.941,33.941 0 0 1 10.089,2.249 34.751,34.751 0 0 1 7.056,3.744 37.481,37.481 0 0 1 4,3.229 l 1.319,1.3 a 0.539,0.539 0 0 0 0.917,-0.333 v -0.1 A 0.536,0.536 0 0 0 33.427,11.082 L 32.114,9.772 A 38.049,38.049 0 0 0 27.982,6.4 35.739,35.739 0 0 0 20.715,2.492 35.15,35.15 0 0 0 10.288,0.1 Q 9.041,0.007 7.748,0"
         transform="translate(7.152)"
         fill="#ffffff" />
    </g>
  </g>
  <g
     id="Group_391"
     data-name="Group 391"
     transform="translate(365.378,280.989)"
     clip-path="url(#clip-path-39)"
     style="display:inline">
    <g
       id="Group_389"
       data-name="Group 389"
       transform="translate(20.363,3.195)">
      <path
         id="Path_882"
         data-name="Path 882"
         d="M 0.285,0 C 0.1,0.083 -0.082,0.169 -0.263,0.256 a 5,5 0 0 1 0.61,1.175 Q 1.522,0.866 2.714,0.4 A 8.479,8.479 0 0 0 0.285,0"
         transform="translate(0.263)"
         fill="#ffffff" />
    </g>
    <g
       id="Group_390"
       data-name="Group 390"
       transform="translate(0,14.062)">
      <path
         id="Path_883"
         data-name="Path 883"
         d="m 3.8,0 a 36.174,36.174 0 0 0 -3.516,5.617 35.47,35.47 0 0 0 -3.773,15.13 35.784,35.784 0 0 0 11.867,27.6 35.293,35.293 0 0 0 12.238,7.2 38.4,38.4 0 0 0 12.484,1.947 h 0.1 a 38.263,38.263 0 0 0 6.781,-0.6 c -0.019,-0.04 -0.035,-0.083 -0.054,-0.127 a 0.98339527,0.98339527 0 1 1 1.819,-0.748 2.635,2.635 0 0 0 0.169,0.36 c 0.012,0.025 0.031,0.054 0.054,0.092 0.66,-0.16 1.3,-0.34 1.919,-0.533 a 24.651,24.651 0 0 0 7.512,-3.803 21.809,21.809 0 0 0 3.921,-3.808 c 0.4,-0.49 0.677,-0.888 0.863,-1.158 l 0.285,-0.4 v 0 a 0.985,0.985 0 0 0 -0.242,-1.371 0.969,0.969 0 0 0 -0.563,-0.179 0.984,0.984 0 0 0 -0.806,0.421 l -0.031,0.044 -0.258,0.371 c -0.169,0.244 -0.419,0.61 -0.781,1.058 a 19.86,19.86 0 0 1 -3.557,3.487 22.711,22.711 0 0 1 -6.923,3.544 34.033,34.033 0 0 1 -10.123,1.517 c -0.09,0 -0.181,0 -0.273,0 A 36.425,36.425 0 0 1 21.185,53.861 33.568,33.568 0 0 1 9.515,47.077 34.175,34.175 0 0 1 -1.947,20.782 33.95,33.95 0 0 1 1.586,6.267 Q 2.22,4.992 2.951,3.783 A 17.059,17.059 0 0 1 3.8,0"
         transform="translate(3.504)"
         fill="#ffffff" />
    </g>
  </g>
  <g
     id="Group_399"
     data-name="Group 399"
     clip-path="url(#clip-path)"
     style="display:inline">
    <g
       id="Group_392"
       data-name="Group 392"
       transform="translate(408.731,350.463)"
       style="display:none">
      <path
         id="Path_885"
         data-name="Path 885"
         d="M 0.511,0 A 0.981,0.981 0 0 0 -0.4,1.356 c 0.017,0.046 0.035,0.088 0.052,0.129 C 0.336,1.363 1,1.221 1.644,1.063 1.621,1.025 1.6,1 1.588,0.971 A 2.737,2.737 0 0 1 1.421,0.61 0.982,0.982 0 0 0 0.511,0"
         transform="translate(0.472)"
         fill="#ffffff"
         style="display:none" />
    </g>
    <g
       id="Group_393"
       data-name="Group 393"
       transform="translate(371.833,294.863)"
       style="display:none">
      <path
         id="Path_886"
         data-name="Path 886"
         d="M 0.515,0 0.371,0.188 A 17.059,17.059 0 0 0 -0.475,3.971 Q -0.094,3.34 0.313,2.727 a 4.493,4.493 0 0 0 0.081,-0.9 v 0 c 0,-0.006 0,-0.013 0,-0.021 A 4.407,4.407 0 0 0 0.523,0.283 C 0.523,0.19 0.521,0.094 0.515,0"
         transform="translate(0.475)"
         fill="#ffffff" />
    </g>
    <g
       id="Group_394"
       data-name="Group 394"
       transform="translate(372.702,284.438)"
       style="display:none">
      <path
         id="Path_887"
         data-name="Path 887"
         d="M 0.069,5.413 0.056,5.43 c 0.006,0.094 0.008,0.19 0.008,0.283 a 4.407,4.407 0 0 1 -0.128,1.523 c 0,0.006 0,0.013 0,0.021 a 4.315,4.315 0 0 0 0.14,-1.415 c 0,-0.144 0,-0.285 -0.006,-0.429 M 12.974,-5 c -0.377,0.181 -0.752,0.367 -1.125,0.563 a 7.243,7.243 0 0 1 1.175,0.892 c 0.185,-0.094 0.375,-0.185 0.563,-0.277 A 4.98,4.98 0 0 0 12.974,-5"
         transform="translate(0.064,4.996)"
         fill="#ffffff" />
    </g>
    <g
       id="Group_395"
       data-name="Group 395"
       transform="translate(375.124,286.214)"
       style="display:none">
      <path
         id="Path_888"
         data-name="Path 888"
         d="M 5.223,0 C 3.444,0.24 1.242,1.175 -1.4,3.538 A 14.422,14.422 0 0 0 -4.821,8.05 33.6,33.6 0 0 1 -0.444,3.763 34.466,34.466 0 0 1 5.223,0"
         transform="translate(4.821)"
         fill="#2bacb3" />
    </g>
    <g
       id="Group_396"
       data-name="Group 396"
       transform="translate(372.62,285)"
       style="display:none">
      <path
         id="Path_889"
         data-name="Path 889"
         d="m 6.237,0 a 35.671,35.671 0 0 0 -5.977,3.913 35.269,35.269 0 0 0 -5.8,5.934 4.223,4.223 0 0 1 0.006,0.429 4.309,4.309 0 0 1 -0.138,1.415 v 0 a 4.653,4.653 0 0 1 -0.083,0.9 34.572,34.572 0 0 1 2.5,-3.325 A 14.452,14.452 0 0 1 0.168,4.75 C 2.81,2.39 5.012,1.45 6.791,1.214 7,1.1 7.2,1 7.412,0.894 A 7.139,7.139 0 0 0 6.237,0"
         transform="translate(5.757)"
         fill="#ffffff"
         style="display:none" />
    </g>
    <g
       id="Group_397"
       data-name="Group 397"
       transform="translate(379.364,287.926)"
       style="display:inline">
      <path
         id="Path_890"
         data-name="Path 890"
         d="M 0.137,5.009 0.653,4.45 C 0.97,4.092 1.518,3.55 2.22,2.877 A 30.285,30.285 0 0 1 4.9,0.707 27.521,27.521 0 0 1 8.712,-1.608 28,28 0 0 1 19.406,-4.546 c 0.51,-0.048 1.023,-0.06 1.542,-0.065 0.275,0 0.479,-0.019 0.815,-0.01 l 0.76,0.044 a 23.268,23.268 0 0 1 3.121,0.3 l 1.61,0.258 c 0.525,0.121 1.042,0.271 1.565,0.406 a 23.205,23.205 0 0 1 3.081,1.019 30.309,30.309 0 0 1 2.94,1.363 c 0.938,0.531 1.852,1.1 2.738,1.69 a 28.863,28.863 0 0 1 4.665,4.129 c 0.338,0.377 0.673,0.75 1,1.121 0.313,0.388 0.592,0.794 0.885,1.181 0.293,0.387 0.581,0.775 0.844,1.171 0.244,0.406 0.485,0.81 0.723,1.208 a 18.068,18.068 0 0 1 1.252,2.385 c 0.181,0.4 0.375,0.777 0.542,1.165 q 0.213,0.594 0.415,1.163 a 28.93,28.93 0 0 1 1.177,4.238 29.421,29.421 0 0 1 0.4,3.363 c 0.035,0.942 0.067,1.679 0.085,2.183 -0.013,0.5 -0.019,0.758 -0.019,0.758 a 0.42704215,0.42704215 0 0 1 -0.854,-0.012 c 0,0 0,-0.265 0,-0.758 -0.025,-0.485 -0.067,-1.2 -0.117,-2.1 a 28.758,28.758 0 0 0 -0.444,-3.244 27.865,27.865 0 0 0 -1.2,-4.067 C 46.797,13.98 46.655,13.608 46.513,13.23 46.348,12.859 46.157,12.495 45.973,12.117 A 16.755,16.755 0 0 0 44.733,9.846 C 44.5,9.465 44.262,9.083 44.023,8.694 43.763,8.319 43.471,7.963 43.192,7.586 42.913,7.209 42.632,6.834 42.329,6.469 Q 41.845,5.941 41.35,5.411 A 27.548,27.548 0 0 0 36.829,1.538 C 35.984,0.988 35.1,0.459 34.2,-0.031 A 28.045,28.045 0 0 0 31.383,-1.281 21.7,21.7 0 0 0 28.45,-2.2 c -0.5,-0.119 -0.994,-0.256 -1.488,-0.36 l -1.488,-0.215 a 21.832,21.832 0 0 0 -3.031,-0.238 l -0.76,-0.031 -0.7,0.023 c -0.488,0.012 -0.971,0.033 -1.452,0.085 a 26.267,26.267 0 0 0 -10,2.923 A 25.593,25.593 0 0 0 6,2.211 28.169,28.169 0 0 0 3.533,4.28 C 2.914,4.9 2.426,5.38 2.1,5.769 L 1.594,6.334 A 0.98475797,0.98475797 0 0 1 0.126,5.021 Z"
         transform="translate(0.126,4.623)"
         fill="#ffffff"
         style="display:inline" />
    </g>
    <g
       id="Group_398"
       data-name="Group 398"
       transform="translate(84.558,126.487)"
       style="display:inline">
      <path
         id="Path_891"
         data-name="Path 891"
         d="m 39.828,104.589 c -0.627,4.113 -7.963,6.719 -18.59,7.279 a 101.336,101.336 0 0 1 -14.85,-0.4 C 4.23,111.253 2.013,110.98 -0.239,110.635 q -2.788,-0.419 -5.448,-0.954 A 105.522,105.522 0 0 1 -18.38,106.4 c -11.571,-3.813 -19.021,-8.934 -18.338,-13.421 0.625,-4.111 7.963,-6.719 18.588,-7.279 a 101.349,101.349 0 0 1 14.853,0.4 c 2.16,0.215 4.375,0.488 6.627,0.833 q 2.791,0.419 5.448,0.954 a 105.763,105.763 0 0 1 12.694,3.279 71.436,71.436 0 0 1 6.971,2.681 4.725,4.725 0 0 0 8.121,4.815 c 2.348,1.992 3.533,4.021 3.244,5.927 z M 21.49,91.168 a 101.357,101.357 0 0 1 -5.6,8.634 c -1.571,2.19 -3.271,4.413 -5.1,6.619 -1.458,1.756 -2.925,3.45 -4.4,5.046 H 6.38 c -2.056,2.246 -4.131,4.321 -6.169,6.209 -10.15,9.392 -19.524,14.084 -23.319,10.955 -1.748,-1.442 -2.083,-4.367 -1.233,-8.236 a 3.008,3.008 0 0 0 1.01,0.169 3.246,3.246 0 0 0 3.242,-3.244 3.246,3.246 0 0 0 -2.223,-3.075 68.545,68.545 0 0 1 3.933,-7.842 102.266,102.266 0 0 1 5.6,-8.636 c 1.571,-2.188 3.271,-4.411 5.1,-6.617 1.458,-1.756 2.925,-3.448 4.4,-5.046 h 0.008 C -1.213,83.859 0.862,81.782 2.9,79.9 13.05,70.5 22.425,65.811 26.219,68.942 29.715,71.83 27.575,80.616 21.49,91.168 Z m 0.244,40.655 c -4.2,2.563 -12.8,-3.411 -21.526,-14.15 -1.971,-2.429 -3.954,-5.111 -5.9,-7.99 -1.01,-1.5 -2,-3.048 -2.983,-4.654 -1.494,-2.44 -2.869,-4.879 -4.113,-7.263 A 98.736,98.736 0 0 1 -18.128,85.7 c -3.6,-10.011 -4.046,-17.788 -0.5,-19.957 a 4.552,4.552 0 0 1 2.981,-0.54 3.252,3.252 0 0 0 -0.252,1.252 3.237,3.237 0 0 0 3.246,3.245 3.241,3.241 0 0 0 2.973,-1.945 c 3.794,2.5 8.169,6.713 12.58,12.14 1.973,2.433 3.954,5.115 5.9,7.992 1.01,1.5 2,3.048 2.983,4.656 1.494,2.438 2.869,4.877 4.111,7.261 a 98.767,98.767 0 0 1 5.346,12.065 c 3.596,10.013 4.044,17.786 0.493,19.955 z M 5.848,98.785 a 5.427,5.427 0 1 1 -5.43,-5.427 5.427,5.427 0 0 1 5.43,5.427 z m 31.5,-2.7 a 4.723,4.723 0 1 1 -4.729,-4.729 4.685,4.685 0 0 1 4.732,4.729 z M -9.409,66.457 a 3.147,3.147 0 0 1 -0.271,1.3 3.238,3.238 0 0 1 -2.971,1.943 3.238,3.238 0 0 1 -3.244,-3.242 3.252,3.252 0 0 1 0.252,-1.252 3.241,3.241 0 0 1 2.992,-1.992 3.251,3.251 0 0 1 3.242,3.243 z m -10.682,50.862 a 3.246,3.246 0 0 1 -3.244,3.244 3.008,3.008 0 0 1 -1.01,-0.169 3.226,3.226 0 0 1 -2.233,-3.075 3.245,3.245 0 0 1 3.244,-3.244 3.1,3.1 0 0 1 1.019,0.169 3.25,3.25 0 0 1 2.224,3.075 z M 241.713,-60.57 a 12.509,12.509 0 0 0 3.111,-8.271 H 256.7 m -19.049,5.167 a 7.44,7.44 0 0 0 2.081,-5.167 7.494,7.494 0 0 0 -7.49,-7.5 7.491,7.491 0 0 0 -7.488,7.5 7.492,7.492 0 0 0 7,7.473 m 37.672,-31.289 a 3.879,3.879 0 0 1 -3.879,3.881 3.882,3.882 0 0 1 -3.883,-3.881 3.883,3.883 0 0 1 3.883,-3.881 3.881,3.881 0 0 1 3.88,3.881 z m -66.8,0.038 c 8.444,-0.544 12.636,5.1 14.05,9.563 a 6.746,6.746 0 0 0 3.724,4.256 6.638,6.638 0 0 0 3.458,0.571 12.536,12.536 0 0 1 8.382,-3.2 12.529,12.529 0 0 1 8.19,3.031 5.989,5.989 0 0 0 2.95,-0.269 6.748,6.748 0 0 0 4.256,-4.465 c 1.44,-4.452 5.629,-10.029 14.027,-9.49 m -66.8,-0.038 a 3.88,3.88 0 0 0 3.881,3.881 3.882,3.882 0 0 0 3.883,-3.881 3.883,3.883 0 0 0 -3.883,-3.881 3.881,3.881 0 0 0 -3.884,3.884 z m 0.417,47.889 a 3.879,3.879 0 0 1 3.879,-3.881 3.882,3.882 0 0 1 3.883,3.881 3.883,3.883 0 0 1 -3.883,3.881 3.881,3.881 0 0 1 -3.882,-3.878 z m 6.1,-24.076 a 3.132,3.132 0 0 1 3.133,-3.133 3.132,3.132 0 0 1 3.131,3.133 3.132,3.132 0 0 1 -3.131,3.131 3.132,3.132 0 0 1 -3.14,-3.127 z m 61.919,0 a 3.13,3.13 0 0 1 -3.131,3.131 3.13,3.13 0 0 1 -3.131,-3.131 3.131,3.131 0 0 1 3.131,-3.133 3.131,3.131 0 0 1 3.123,3.137 z m -60.26,24.042 c 8.425,0.544 12.615,-5.075 14.04,-9.534 a 6.7,6.7 0 0 1 3.794,-4.283 c 0.119,-0.046 0.233,-0.088 0.348,-0.127 a 1.768,1.768 0 0 0 0.823,-2.719 12.521,12.521 0 0 1 -2.388,-7.375 h -11.88 m 50.248,20.743 -26.976,-20.618 3.221,33.8 6.542,-6.494 8.589,15.485 8.638,-4.794 -8.527,-15.369 z"
         transform="translate(36.762,96.538)"
         fill="none"
         stroke="#ffffff"
         stroke-linecap="round"
         stroke-width="1.259"
         style="display:inline" />
    </g>
  </g>
  <g
     id="Group_400"
     data-name="Group 400"
     transform="translate(188.31,121.797)"
     style="display:inline">
    <path
       id="Path_893"
       data-name="Path 893"
       d="M 0,0.549 5.767,-0.507 6.848,5.408"
       transform="translate(0,0.507)"
       fill="none"
       stroke="#ffffff"
       stroke-linecap="round"
       stroke-linejoin="round"
       stroke-width="1.259" />
  </g>
  <g
     id="Group_404"
     data-name="Group 404"
     clip-path="url(#clip-path)"
     style="display:inline">
    <g
       id="Group_401"
       data-name="Group 401"
       transform="translate(139.516,136.328)">
      <path
         id="Path_894"
         data-name="Path 894"
         d="m 26.968,0 h 4.788 a 5.479,5.479 0 0 1 5.479,5.479 v 34.97 a 5.479,5.479 0 0 1 -5.479,5.479 h -51.169 a 5.481,5.481 0 0 1 -5.479,-5.479 V 5.479 A 5.481,5.481 0 0 1 -19.413,0 H 6.171 m 7.575,53.741 H -1.4 v -7.812 h 15.15 z m -20.486,0 H 19.082 M -24.892,38.305 h 62.127"
         transform="translate(24.892)"
         fill="none"
         stroke="#ffffff"
         stroke-linecap="round"
         stroke-width="1.259" />
    </g>
    <g
       id="Group_402"
       data-name="Group 402"
       transform="translate(169.543,177.516)">
      <path
         id="Path_895"
         data-name="Path 895"
         d="m 1.078,0.538 a 1.035,1.035 0 0 1 -1.035,1.036 1.037,1.037 0 1 1 0,-2.074 1.035,1.035 0 0 1 1.035,1.038"
         transform="translate(0.995,0.497)"
         fill="#ed287a" />
    </g>
    <g
       id="Group_403"
       data-name="Group 403"
       transform="translate(169.543,177.516)">
      <path
         id="Path_896"
         data-name="Path 896"
         d="m 1.078,0.538 a 1.035,1.035 0 0 1 -1.035,1.036 1.037,1.037 0 1 1 0,-2.074 1.035,1.035 0 0 1 1.035,1.038 z"
         transform="translate(0.995,0.497)"
         fill="none"
         stroke="#ffffff"
         stroke-width="0.63" />
    </g>
  </g>
  <path
     id="Path_898"
     data-name="Path 898"
     d="m 154.882,164.914 h -7.767 v 9.719 h 7.767 z m 13.053,-6.765 h -7.767 v 16.484 h 7.767 z m 13.055,2.381 h -7.768 v 14.1 h 7.767 z m 13.055,-18.582 h -7.767 v 32.682 h 7.767 z"
     fill="none"
     stroke="#ffffff"
     stroke-linecap="round"
     stroke-width="1.259"
     style="display:inline" />
  <g
     id="Group_406"
     data-name="Group 406"
     clip-path="url(#clip-path)"
     style="display:inline">
    <g
       id="Group_405"
       data-name="Group 405"
       transform="translate(150.998,122.036)">
      <path
         id="Path_899"
         data-name="Path 899"
         d="M 0,18.853 10.911,4.8 20.211,11.827 42.9,-17.4 m 69.567,332.019 H 97.482 v -3.329 a 9.766,9.766 0 0 1 9.767,-9.767 l 0.329,0.829 1.079,2.713 z m -4.892,-13.094 v 0.827 l -0.329,-0.827 z m 19.88,9.765 v 3.329 h -14.987 l 3.819,-9.554 1.073,-2.713 0.01,-0.025 0.321,-0.8 a 9.761,9.761 0 0 1 9.765,9.761 z m -10.088,-14.961 v 6 l -0.008,0.021 -1.073,2.717 -3.817,9.552 -3.813,-9.552 -1.081,-2.717 v -5.992 a 10.066,10.066 0 0 0 9.792,-0.029 z m -8.711,8.736 3.815,-2.219 3.817,2.219 m 6.269,-25.788 v 8.223 a 10.107,10.107 0 1 1 -20.213,0 v -6.89 a 10.894,10.894 0 0 1 10.892,-10.884 h 5.264 v 4.606 a 5.051,5.051 0 0 1 4.058,4.942 z m 0,0 v 5.5 a 14.552,14.552 0 0 1 -3.75,-3.75 14.438,14.438 0 0 1 -12.277,-0.7 14.57,14.57 0 0 1 -4.186,4.444 v -4.158 a 10.894,10.894 0 0 1 10.892,-10.884 h 5.264 v 4.606 a 5.051,5.051 0 0 1 4.058,4.939 z m 6.49,-39.368 -7.861,2.2 -8.719,2.433 -8.717,-2.433 -7.854,-2.2 16.571,-4.638 z m -7.861,2.2 v 10.6 h -17.435 v -10.6 l 8.717,2.433 z m -8.325,-2.2 h 16.189 v 7.5 m 11.921,8.771 3.84,7.779 8.584,1.246 -6.211,6.054 1.465,8.55 -7.677,-4.036 -7.677,4.036 1.465,-8.55 -6.211,-6.054 8.584,-1.246 z m -54.029,11.846 a 3.22,3.22 0 1 1 -3.19,-3.25 3.221,3.221 0 0 1 3.19,3.25 z m -2.1,-11.875 1.306,3.673 c 0.652,0.271 0.981,0.406 1.633,0.675 l 3.521,-1.673 c 0.792,0.792 0.794,0.8 1.585,1.588 l -1.673,3.521 c 0.271,0.65 0.406,0.979 0.677,1.633 l 3.673,1.306 v 2.244 l -3.673,1.306 c -0.271,0.65 -0.406,0.979 -0.677,1.631 l 1.673,3.523 -1.585,1.585 -3.521,-1.673 -1.633,0.677 -1.306,3.671 H 82.6 l -1.306,-3.671 c -0.65,-0.271 -0.981,-0.406 -1.633,-0.677 l -3.519,1.673 c -0.794,-0.792 -0.8,-0.794 -1.588,-1.585 l 1.673,-3.523 c -0.269,-0.652 -0.406,-0.981 -0.677,-1.631 l -3.673,-1.306 v -2.244 l 3.673,-1.306 c 0.271,-0.654 0.408,-0.983 0.677,-1.633 l -1.673,-3.521 c 0.792,-0.792 0.794,-0.8 1.588,-1.588 l 3.519,1.673 c 0.652,-0.269 0.983,-0.4 1.633,-0.675 l 1.306,-3.673 z"
         transform="translate(0,17.402)"
         fill="none"
         stroke="#ffffff"
         stroke-linecap="round"
         stroke-linejoin="round"
         stroke-width="1.259"
         style="display:inline" />
    </g>
  </g>
</svg>
