<svg xmlns="http://www.w3.org/2000/svg" viewBox="0 0 100 100">
  <g transform="translate(50, 50) scale(1.8)">
    <path d="M22.126 58.08c-0.348 2.285-4.424 3.733-10.328 4.044a56.298 56.298 0 0 1-8.25-0.222c-1.2-0.12-2.43-0.271-3.682-0.463q-1.549-0.233-3.027-0.53a58.64 58.64 0 0 1-7.052-1.823c-6.428-2.118-10.567-4.963-10.188-7.456 0.347-2.284 4.424-3.733 10.327-4.044a56.305 56.305 0 0 1 8.252 0.222c1.2 0.12 2.43 0.271 3.682 0.463q1.551 0.233 3.027 0.53a58.757 58.757 0 0 1 7.052 1.822c1.316 0.429 2.609 0.926 3.873 1.49a2.625 2.625 0 0 0 4.512 2.675c1.304 1.107 1.963 2.234 1.802 3.292zM11.939 50.649a56.31 56.31 0 0 1-3.111 4.797c-0.873 1.217-1.817 2.452-2.833 3.677-0.81 0.976-1.625 1.917-2.444 2.803h-0.006c-1.142 1.248-2.295 2.4-3.427 3.45-5.639 5.218-10.847 7.824-12.955 6.086-0.971-0.801-1.157-2.426-0.685-4.576a1.671 1.671 0 0 0 0.561 0.094 1.803 1.803 0 0 0 1.801-1.803 1.803 1.803 0 0 0-1.235-1.708c0.634-1.497 1.365-2.952 2.185-4.357a56.817 56.817 0 0 1 3.111-4.798c0.873-1.216 1.817-2.451 2.833-3.676 0.81-0.976 1.625-1.916 2.444-2.803h0.004c1.142-1.247 2.295-2.399 3.427-3.449 5.639-5.217 10.847-7.824 12.955-6.086 1.939 1.612 0.744 6.466-4.625 11.349zm0.136 22.586c-2.333 1.424-7.111-1.895-11.959-7.861-1.095-1.35-2.197-2.84-3.278-4.439a90.386 90.386 0 0 1-1.657-2.586c-0.83-1.356-1.594-2.711-2.285-4.035a54.85 54.85 0 0 1-2.967-6.703c-2-5.562-2.248-9.882-0.278-11.087a2.529 2.529 0 0 1 1.656-0.3 1.804 1.804 0 0 0-0.14 0.696 1.799 1.799 0 0 0 1.803 1.803 1.801 1.801 0 0 0 1.652-1.081c2.108 1.389 4.538 3.73 6.989 6.745 1.096 1.352 2.197 2.842 3.278 4.44 0.561 0.833 1.111 1.693 1.657 2.587 0.83 1.354 1.594 2.71 2.284 4.034a54.88 54.88 0 0 1 2.97 6.703c1.998 5.562 2.247 9.881 0.274 11.084zm-3.251-18.438a3.015 3.015 0 1 1-3.017-3.015 3.014 3.014 0 0 1 3.017 3.015zm17.5-1.5a2.625 2.625 0 1 1-2.627-2.627 2.603 2.603 0 0 1 2.63 2.627zM-5.227 36.921a1.748 1.748 0 0 1-0.151 0.722 1.799 1.799 0 0 1-1.65 1.08 1.799 1.799 0 0 1-1.803-1.802 1.807 1.807 0 0 1 0.14-0.695 1.8 1.8 0 0 1 1.663-1.107 1.807 1.807 0 0 1 1.801 1.802zm-5.935 28.257a1.803 1.803 0 0 1-1.802 1.803 1.671 1.671 0 0 1-0.561-0.094 1.792 1.792 0 0 1-1.24-1.709 1.803 1.803 0 0 1 1.802-1.802 1.723 1.723 0 0 1 0.566 0.094 1.806 1.806 0 0 1 1.235 1.708z" fill="#ffffff"/>
  </g>
</svg>