<svg xmlns="http://www.w3.org/2000/svg" viewBox="0 0 100 100">
  <g transform="translate(50, 50) scale(0.18)">
    <path d="M241.713-60.57a12.509 12.509 0 0 0 3.111-8.271H256.7m-19.049 5.167a7.44 7.44 0 0 0 2.081-5.167 7.494 7.494 0 0 0-7.49-7.5 7.491 7.491 0 0 0-7.488 7.5 7.492 7.492 0 0 0 7 7.473m37.672-31.289a3.879 3.879 0 0 1-3.879 3.881 3.882 3.882 0 0 1-3.883-3.881 3.883 3.883 0 0 1 3.883-3.881 3.881 3.881 0 0 1 3.88 3.881zm-66.8 0.038c8.444-0.544 12.636 5.1 14.05 9.563a6.746 6.746 0 0 0 3.724 4.256 6.638 6.638 0 0 0 3.458 0.571 12.536 12.536 0 0 1 8.382-3.2 12.529 12.529 0 0 1 8.19 3.031 5.989 5.989 0 0 0 2.95-0.269 6.748 6.748 0 0 0 4.256-4.465c1.44-4.452 5.629-10.029 14.027-9.49m-66.8-0.038a3.88 3.88 0 0 0 3.881 3.881 3.882 3.882 0 0 0 3.883-3.881 3.883 3.883 0 0 0-3.883-3.881 3.881 3.881 0 0 0-3.884 3.884zm0.417 47.889a3.879 3.879 0 0 1 3.879-3.881 3.882 3.882 0 0 1 3.883 3.881 3.883 3.883 0 0 1-3.883 3.881 3.881 3.881 0 0 1-3.882-3.878zm6.1-24.076a3.132 3.132 0 0 1 3.133-3.133 3.132 3.132 0 0 1 3.131 3.133 3.132 3.132 0 0 1-3.131 3.131 3.132 3.132 0 0 1-3.14-3.127zm61.919 0a3.13 3.13 0 0 1-3.131 3.131 3.13 3.13 0 0 1-3.131-3.131 3.131 3.131 0 0 1 3.131-3.133 3.131 3.131 0 0 1 3.123 3.137zm-60.26 24.042c8.425 0.544 12.615-5.075 14.04-9.534a6.7 6.7 0 0 1 3.794-4.283c0.119-0.046 0.233-0.088 0.348-0.127a1.768 1.768 0 0 0 0.823-2.719 12.521 12.521 0 0 1-2.388-7.375h-11.88m50.248 20.743l-26.976-20.618 3.221 33.8 6.542-6.494 8.589 15.485 8.638-4.794-8.527-15.369z" fill="none" stroke="#ffffff" stroke-linecap="round" stroke-width="1"/>
  </g>
</svg>