<?xml version="1.0" encoding="UTF-8"?>
<svg xmlns="http://www.w3.org/2000/svg" width="147" height="221" viewBox="0 0 147 221" fill="none">
  <path d="M73.543 147.289L73.543 74.1447C73.543 33.7404 105.995 1.00028 146.043 1.00028L146.043 74.1447C146.043 114.549 113.591 147.289 73.543 147.289ZM73.543 147.289L37.3114 147.289C57.3171 147.289 73.543 163.659 73.543 183.861C73.543 204.064 57.3171 220.434 37.293 220.434C17.2688 220.434 1.04297 204.064 1.04297 183.861C1.04297 163.659 17.2688 147.289 37.293 147.289C17.2688 147.289 1.04297 130.919 1.04297 110.717L1.04297 74.1447L37.293 74.1447C57.3171 74.1447 73.543 90.5148 73.543 110.717L73.543 147.289Z" stroke="#F4D07D"></path>
</svg>
