<?xml version="1.0" encoding="UTF-8"?>
<svg xmlns="http://www.w3.org/2000/svg" width="180" height="53" viewBox="0 0 180 53" fill="none">
  <path fill-rule="evenodd" clip-rule="evenodd" d="M46.4664 35.0315C42.1087 35.0315 39.1521 37.9892 39.1521 42.3863C39.1521 45.045 39.9714 46.9958 41.6773 48.3881C42.9715 49.4618 44.5666 49.977 46.4862 49.977C50.8875 49.977 53.7768 46.9919 53.7768 42.4925C53.7768 37.9931 50.8875 35.0315 46.4625 35.0315M46.4625 38.5673C48.2317 38.5673 49.3953 40.1327 49.3953 42.4885C49.3953 44.8444 48.2317 46.4334 46.4625 46.4334C44.6933 46.4334 43.5296 44.8916 43.5296 42.4453C43.5296 40.1287 44.717 38.5673 46.4625 38.5673ZM58.4353 35.3501H54.509V49.6467H58.4353V35.3501ZM64.9065 39.0393C61.5858 39.0393 59.1675 41.3322 59.1675 44.5062C59.1675 47.6801 61.5621 49.977 64.9263 49.977C68.2906 49.977 70.6852 47.6801 70.6852 44.5731C70.6852 41.466 68.3104 39.0432 64.9026 39.0432L64.9065 39.0393ZM64.9263 41.7609C66.1335 41.7609 66.7391 42.6813 66.7391 44.5062C66.7391 46.3311 66.1335 47.2514 64.9263 47.2514C63.7192 47.2514 63.1136 46.3311 63.1136 44.4629C63.1136 42.5947 63.7389 41.7609 64.9263 41.7609ZM75.1102 39.3618H71.4411V49.6506H75.3674V44.5691C75.3674 43.047 75.8859 42.2762 76.8992 42.2762C77.4612 42.2762 77.9124 42.5554 78.0628 43.0274C78.1499 43.2634 78.1934 43.7117 78.1934 44.3135V49.6506H82.1197V44.5691C82.1197 43.0274 82.6144 42.2762 83.6514 42.2762C84.1897 42.2762 84.6449 42.5554 84.7953 43.0274C84.9022 43.283 84.9259 43.6055 84.9259 44.3135V49.6506H88.8522V43.3892C88.8522 42.402 88.7216 41.6547 88.4841 41.0963C87.8785 39.7905 86.608 39.0393 84.9694 39.0393C83.3308 39.0393 82.3374 39.5978 81.5181 40.8603C80.9125 39.6371 79.8795 39.0393 78.3478 39.0393C76.816 39.0393 75.8899 39.5978 75.1102 40.8603V39.3579V39.3618ZM95.2799 39.0393C91.9592 39.0393 89.5409 41.3322 89.5409 44.5062C89.5409 47.6801 91.9354 49.977 95.2997 49.977C98.664 49.977 101.059 47.6801 101.059 44.5731C101.059 41.466 98.6838 39.0432 95.276 39.0432L95.2799 39.0393ZM95.2997 41.7609C96.5069 41.7609 97.1124 42.6813 97.1124 44.5062C97.1124 46.3311 96.5069 47.2514 95.2997 47.2514C94.0925 47.2514 93.487 46.3311 93.487 44.4629C93.487 42.5947 94.1123 41.7609 95.2997 41.7609ZM112.58 39.3618H108.654V44.636C108.654 45.4501 108.591 45.7726 108.353 46.0715C108.052 46.4373 107.534 46.6733 107.015 46.6733C106.497 46.6733 106.065 46.4176 105.871 45.9889C105.741 45.7333 105.697 45.3046 105.697 44.6399V39.3657H101.771V45.3479C101.771 46.8896 101.921 47.6841 102.377 48.4117C103.002 49.3989 104.233 50.0006 105.654 50.0006C107.075 50.0006 108.005 49.4815 108.931 48.1521V49.6545H112.576V39.3618H112.58ZM120.607 45.4069C120.52 46.6064 119.982 47.2514 119.095 47.2514C117.975 47.2514 117.306 46.2446 117.306 44.5495C117.306 42.8543 117.955 41.7609 119.075 41.7609C119.918 41.7609 120.433 42.2762 120.607 43.2634L124.403 43.1768C124.034 40.585 122.071 39.0393 119.162 39.0393C115.774 39.0393 113.336 41.3322 113.336 44.5062C113.336 47.6801 115.794 49.977 119.032 49.977C122.075 49.977 124.339 48.0853 124.403 45.4698L120.607 45.4069ZM128.871 46.9093L129.627 46.0715L131.764 49.6506H136.447L132.22 43.3695L135.94 39.5034L139.229 48.1285C139.423 48.6201 139.486 48.8994 139.486 49.159C139.486 49.6781 139.075 49.9574 138.279 49.9574C138.208 49.9574 137.862 49.9508 137.242 49.9377V52.9386H139.336C141.236 52.9583 141.58 52.8757 142.419 52.2936C143.258 51.6289 143.864 50.6221 144.513 48.7735L147.683 39.3618H143.583L141.794 45.7058L139.981 39.3618H131.396L128.871 42.406V35.354H124.945V49.6506H128.871V46.9053V46.9093ZM145.415 35.0119H141.552L140.515 38.292H142.997L145.411 35.0119H145.415ZM154.111 35.354H152.429V49.6506H154.111V45.576L155.817 44.0106L159.613 49.6467H161.683L157.068 43.0234L160.95 39.4208H158.773L154.115 43.7314V35.3501L154.111 35.354ZM163.97 39.4286H162.288V49.6545H164.057V44.8326C164.057 43.46 164.144 42.988 164.489 42.2801C164.92 41.3598 166.02 40.6951 167.057 40.6951C167.315 40.6951 167.489 40.7187 167.901 40.8013V39.2163C167.469 39.1297 167.295 39.1101 167.057 39.1101C165.937 39.1101 165.031 39.7118 163.974 41.167V39.4326L163.97 39.4286ZM177.194 48.4943C177 48.5375 176.913 48.5572 176.806 48.5572C176.2 48.5572 176.03 48.2583 176.03 47.1413V42.3194C176.03 41.3126 175.9 40.7777 175.512 40.3057C174.95 39.5781 173.723 39.1494 172.234 39.1494C170.552 39.1494 169.234 39.6646 168.589 40.585C168.201 41.1434 168.071 41.6587 168.027 42.6655H169.622C169.642 42.0638 169.686 41.8081 169.816 41.5289C170.097 40.9075 171.047 40.522 172.231 40.522C173.699 40.522 174.388 41.1002 174.388 42.343C174.388 43.0706 174.043 43.3735 172.986 43.5426C169.947 44.0578 169.622 44.1444 168.886 44.5927C167.936 45.1512 167.441 46.0086 167.441 47.102C167.441 48.8365 168.799 49.9338 170.936 49.9338C172.575 49.9338 173.806 49.3281 174.645 48.1285C174.665 48.687 174.708 48.8561 174.795 49.0488C174.969 49.5208 175.595 49.8472 176.283 49.8472C176.584 49.8472 176.802 49.804 177.19 49.7175V48.4904L177.194 48.4943ZM174.348 46.0086C174.348 47.5307 173.074 48.5808 171.241 48.5808C169.947 48.5808 169.127 47.9358 169.127 46.9289C169.127 46.4766 169.321 46.0283 169.622 45.7726C170.117 45.3439 170.723 45.1276 172.428 44.7854C173.485 44.5927 173.786 44.5062 174.348 44.2505V46.0086ZM180 39.4286H178.318V49.6585C178.318 50.5788 178.298 50.7086 178.167 50.9446C178.037 51.1805 177.669 51.3103 177.063 51.3103C176.889 51.3103 176.762 51.3103 176.458 51.2671V52.6161C176.889 52.7223 177.146 52.7656 177.495 52.7656C179.204 52.7656 180 52.0379 180 50.4726V39.4286ZM180 35.354H178.318V37.3913H180V35.354ZM28.2559 17.9268C24.1792 16.4597 18.5628 16.2041 14.779 16.8412C10.9952 17.4784 9.27349 18.1942 6.80769 19.3623C4.35375 20.5226 2.05022 22.0132 0 23.7634C2.66766 25.4664 7.56762 26.1389 11.6126 25.6119C15.6537 25.0888 17.8939 24.2589 20.7634 22.9178C23.6488 21.5687 26.2056 19.8461 28.2559 17.9268ZM29.4037 16.3024C30.7335 12.979 30.5871 9.94664 28.6319 7.3587C26.6766 4.77077 22.9087 3.26442 18.7647 3.0717C17.3675 5.35679 16.7936 7.39803 18.1552 10.104C19.5167 12.8099 23.819 15.4608 29.4037 16.3064V16.3024ZM31.9091 16.3182C37.3275 15.5984 42.362 14.0016 47.0878 10.7804C51.8136 7.55929 54.1488 3.28801 53.1712 0C47.915 0.991124 43.5969 2.41488 39.3698 5.19554C35.1387 7.97619 32.107 12.2278 31.9091 16.3182ZM32.3682 17.9897C34.549 21.4193 39.9398 25.0613 45.469 27.0121C50.9983 28.9628 54.9721 29.5607 60.1412 29.8714C65.6111 30.1978 71.1285 29.777 76.2105 28.6679C70.3052 23.6611 61.2731 19.5511 55.2254 18.0526C49.1816 16.5541 46.7158 16.5109 42.837 16.5541C39.1363 16.5974 35.6018 17.0969 32.3642 17.9897H32.3682ZM30.0449 19.0083C25.8573 21.7339 22.2556 26.2648 20.8386 30.1506C19.4217 34.0365 19.3544 36.5575 19.7542 39.9439C20.1856 43.5937 21.5432 47.4127 23.7794 51.1452C29.3958 47.0863 33.5793 40.0776 34.5807 35.236C35.586 30.3945 35.1031 28.5184 34.2086 25.7102C33.3735 23.0869 31.9328 20.8293 30.0449 19.0083Z" fill="white"></path>
</svg>
