<?xml version="1.0" encoding="UTF-8"?>
<svg xmlns="http://www.w3.org/2000/svg" width="642" height="550" viewBox="0 0 642 550" fill="none">
  <path d="M275.731 183.68L367.328 183.68C417.921 183.68 458.944 142.782 458.944 92.3301L458.944 0.999992L367.328 0.999988C316.735 0.999986 275.731 41.8978 275.731 92.3301L275.731 183.68ZM275.731 183.68L275.731 92.4867C275.731 42.1132 233.59 1.29365 183.076 1.29365L92.4594 1.29364L92.4594 183.68L275.731 183.68ZM275.731 183.68L275.731 366.301M275.731 183.68L549.697 183.68C600.114 183.68 641 224.538 641 274.951C641 325.364 600.114 366.222 549.697 366.222L549.658 366.222L549.658 366.301L275.731 366.301M275.731 183.68L184.272 183.68L184.272 275.108C184.272 325.481 225.217 366.301 275.731 366.301M641 183.68C641 133.306 600.055 92.4867 549.541 92.4867L458.924 92.4867L458.924 183.68L641 183.68ZM550.384 411.897C550.384 437.074 529.911 457.494 504.654 457.494L458.924 457.494L458.924 411.897C458.924 386.72 479.397 366.301 504.654 366.301L550.384 366.301L550.384 411.897ZM458.944 457.631L458.944 366.301L367.328 366.301C317.735 366.301 277.378 405.613 275.81 454.675C274.241 405.613 233.884 366.301 184.291 366.301L92.6751 366.301L92.6751 457.631C92.6751 508.083 133.698 548.98 184.291 548.98L367.347 548.98C417.94 548.98 458.964 508.083 458.964 457.631L458.944 457.631ZM184.154 183.68L184.154 366.301L0.99999 366.301L0.999998 183.68L184.154 183.68ZM46.7297 92.4867C21.4725 92.4867 1 112.906 1 138.083C0.999999 163.26 21.4725 183.68 46.7297 183.68C71.9869 183.68 92.4594 163.26 92.4594 138.083C92.4594 112.906 71.9869 92.4867 46.7297 92.4867ZM92.577 548.98L1.11764 548.98L1.11764 457.65C1.11764 407.277 42.0626 366.457 92.577 366.457L92.577 549L92.577 548.98Z" stroke="#F7E6B7"></path>
</svg>
