<?xml version="1.0" encoding="UTF-8"?>
<svg xmlns="http://www.w3.org/2000/svg" xmlns:xlink="http://www.w3.org/1999/xlink" id="Vrstva_1" data-name="Vrstva 1" viewBox="0 0 566.93 152.59">
  <defs>
    <style>.cls-1{fill:#fff;}.cls-2{fill:url(#Nové_políčko_přechodu_1);}</style>
    <linearGradient id="Nové_políčko_přechodu_1" x1="25.22" y1="78.29" x2="117.73" y2="78.29" gradientUnits="userSpaceOnUse">
      <stop offset="0" stop-color="#ffac00"></stop>
      <stop offset="1" stop-color="#ff7765"></stop>
    </linearGradient>
  </defs>
  <path class="cls-1" d="M172,95.79,150.82,45.54a4.79,4.79,0,0,1-.38-1.78,4,4,0,0,1,4.06-4,3.82,3.82,0,0,1,3.79,2.66L176.14,86,194,42.37a3.84,3.84,0,0,1,3.8-2.66,4,4,0,0,1,4.05,4,4.79,4.79,0,0,1-.38,1.78L176.52,104.9c-5.19,12.41-11.64,18.74-23.67,18.74a3.8,3.8,0,1,1,0-7.6C163.86,116,166.77,108.57,172,95.79Z"></path>
  <path class="cls-1" d="M262.78,61.36v33.8a4.05,4.05,0,1,1-8.1,0V63c0-10-2.91-16.83-15.19-16.83-12.53,0-16.83,7.59-16.83,17.72V95.16a4.05,4.05,0,1,1-8.1,0V43.76a4,4,0,1,1,8.1,0v4.05c2.4-4.81,8.6-8.86,16.83-8.86C259,39,262.78,50.6,262.78,61.36Z"></path>
  <path class="cls-1" d="M328.35,69.33c0,20.76-10.13,30.51-26.58,30.51s-26.59-9.75-26.59-30.51S285.44,39,301.77,39,328.35,48.57,328.35,69.33Zm-8.23,0c0-15.95-6.71-23-18.35-23s-18.36,7.09-18.36,23c0,16.21,6.71,23.17,18.36,23.17S320.12,85.54,320.12,69.33Z"></path>
  <path class="cls-1" d="M357,96.5,335.52,45.36a4.58,4.58,0,0,1-.38-1.77,4,4,0,0,1,4.05-4.05A3.84,3.84,0,0,1,343,42.2l17.85,43.67L378.68,42.2a3.84,3.84,0,0,1,3.8-2.66,4,4,0,0,1,4,4.05,4.58,4.58,0,0,1-.38,1.77L364.63,96.5a4.11,4.11,0,0,1-7.59,0Z"></path>
  <path class="cls-1" d="M405.26,52.83C404,54.22,403.11,54.6,402,54.6a3.67,3.67,0,0,1-3.67-3.67,3.9,3.9,0,0,1,.63-2.15c3.55-5.57,10.38-10,21-10,14.69,0,22.79,8.61,22.79,21.52V95.11a3.93,3.93,0,0,1-7.85,0V90.55c-3.16,6-10.51,9.11-18.1,9.11-13.42,0-21.9-6.45-21.9-18.1,0-11.14,8.48-17.84,22.15-17.84h17.85V60.3c0-8.61-5.69-13.93-14.94-13.93C413.24,46.37,409.18,48.4,405.26,52.83Zm29.62,23.29V70.8H417c-8.23,0-13.92,3.42-13.92,10.76,0,6.59,4.56,10.76,14.43,10.76C426.4,92.32,434.88,86.88,434.88,76.12Z"></path>
  <path class="cls-1" d="M462.1,27.26a4.16,4.16,0,0,1,4-4.05,4.08,4.08,0,0,1,4.05,4.05V40.55h8.22a3.8,3.8,0,1,1,0,7.59H470.2V83.08c0,5.45,3,8.36,7.34,8.36a3.8,3.8,0,1,1,0,7.59c-10,0-15.44-6.71-15.44-16V48.14h-4.94a3.8,3.8,0,1,1,0-7.59h4.94Z"></path>
  <path class="cls-1" d="M517.54,38.78c20.25,0,24.17,16.07,24.17,24.68,0,3.67,0,8.1-5.06,8.1h-37c0,12.53,7.21,20.64,19.11,20.64,7.34,0,11.65-2.79,15.19-5.45a3.58,3.58,0,0,1,2.28-.76,3.67,3.67,0,0,1,3.67,3.67,3.8,3.8,0,0,1-1.39,2.92c-1.9,1.89-8.48,7.08-19.75,7.08-16.83,0-27.34-9.24-27.34-30.5C491.46,49.66,501.08,38.78,517.54,38.78Zm0,7.34c-11,0-17.09,7.09-17.85,18.35h34.05C533.74,55.36,530.57,46.12,517.54,46.12Z"></path>
  <path class="cls-2" d="M111.45,56.11a21.44,21.44,0,0,0,0-30.32h0a21.44,21.44,0,0,0-30.32,0L71.5,35.42l-9.64-9.63a21.3,21.3,0,0,0-6.22-4.3l-.12-.06c-.61-.28-1.23-.52-1.86-.74l-.29-.1c-.59-.19-1.19-.36-1.79-.5l-.41-.1q-.93-.19-1.86-.3l-.37-.06c-.74-.07-1.49-.12-2.24-.12h-.05c-.23,0-.45,0-.69,0-.45,0-.9,0-1.36.06s-1.16.15-1.74.26l-.27,0A21.41,21.41,0,0,0,32,56.59L55.57,80.13,66,90.8l-9,9h0a21.43,21.43,0,1,0,29.57.69L77,90.8l14.83-15ZM46.65,54.6a13.51,13.51,0,0,1-9.12-3.52l-.48-.48a13.65,13.65,0,0,1,8.33-23.24l.25,0c.35,0,.69-.05,1-.05a14.17,14.17,0,0,1,1.47.08l.1,0a12.07,12.07,0,0,1,1.34.22l.09,0a13.74,13.74,0,0,1,7.19,4.24l.06.07,9,9-9.65,9.66a13.59,13.59,0,0,1-9.65,4ZM81.13,106a13.66,13.66,0,1,1-18.73-.54l.08-.08,9-9h0l0,0ZM86.25,70.3l-14.77,15L61.15,74.71,48.72,62.28a21.39,21.39,0,0,0,13.1-6.17l9.67-9.68h0L86.63,31.29A13.66,13.66,0,1,1,106,50.6L86.26,70.29Z"></path>
</svg>
